<?xml version="1.0" encoding="UTF-8"?>
<svg id="Icons" xmlns="http://www.w3.org/2000/svg" viewBox="0 0 64 64">
  <defs>
    <style>
      .cls-1 {
        fill: none;
        stroke: #003290;
        stroke-linecap: round;
        stroke-linejoin: round;
        stroke-width: 2px;
      }
    </style>
  </defs>
  <path class="cls-1" d="M15.32,41.85h2v14h-2c-2.21,0-4-1.79-4-4v-6c0-2.21,1.79-4,4-4Z" transform="translate(-30.35 24.44) rotate(-45)"/>
  <path class="cls-1" d="M36.24,38.24l2.12,2.12c-5.4,2.03-9.55,5.3-13.44,9.19l-11.31-11.31c3.8-3.8,7.08-8.11,9.19-13.44l7.09,7.09"/>
  <line class="cls-1" x1="32.72" y1="34.72" x2="33.41" y2="35.41"/>
  <path class="cls-1" d="M29.19,8.56l25.43,25.43c1.19,1.19.5,3.19-1.15,3.41-3.72.48-7.63.7-10.83,1.59l-18.59-18.59c.95-3.27,1.34-7.02,1.73-10.68.18-1.66,2.22-2.35,3.41-1.16Z"/>
  <path class="cls-1" d="M28.46,51.68l8.82,5.01c1.43.83,3.27.33,4.09-1.1h0c.83-1.43.34-3.27-1.09-4.09l-6.88-3.98c-1.59,1.12-3.25,2.52-4.94,4.16Z"/>
  <line class="cls-1" x1="44.73" y1="18.44" x2="48.97" y2="14.2"/>
  <line class="cls-1" x1="38.36" y1="12.08" x2="39.78" y2="6.42"/>
  <line class="cls-1" x1="51.09" y1="24.81" x2="56.75" y2="23.39"/>
</svg>