<?xml version="1.0" encoding="UTF-8"?>
<svg id="Icons" xmlns="http://www.w3.org/2000/svg" viewBox="0 0 64 64">
  <defs>
    <style>
      .cls-1 {
        fill: none;
        stroke: #003290;
        stroke-linecap: round;
        stroke-linejoin: round;
        stroke-width: 2px;
      }
    </style>
  </defs>
  <ellipse class="cls-1" cx="17" cy="12" rx="5" ry="6"/>
  <path class="cls-1" d="M18,46v-8h-3l-5,20-4-1,4-19,1-14c0-1,1-3,3-3"/>
  <line class="cls-1" x1="18" y1="51.03" x2="18" y2="50"/>
  <path class="cls-1" d="M20,21c2,0,3,1.59,3,3v1l2,2,9,3-1,3-10-2v7l-1,20h-4v-3"/>
  <polygon class="cls-1" points="56 51 41 51 39 39 58 39 56 51"/>
  <circle class="cls-1" cx="43" cy="55" r="2"/>
  <circle class="cls-1" cx="54" cy="55" r="2"/>
  <line class="cls-1" x1="51" y1="51" x2="53" y2="39"/>
  <line class="cls-1" x1="46" y1="51" x2="44" y2="39"/>
  <line class="cls-1" x1="39" y1="39" x2="35" y2="34"/>
  <line class="cls-1" x1="23" y1="31" x2="20" y2="29"/>
</svg>