<?xml version="1.0" encoding="UTF-8"?>
<svg id="Icons" xmlns="http://www.w3.org/2000/svg" viewBox="0 0 64 64">
  <defs>
    <style>
      .cls-1 {
        fill: none;
        stroke: #003290;
        stroke-linecap: round;
        stroke-linejoin: round;
        stroke-width: 2px;
      }
    </style>
  </defs>
  <line class="cls-1" x1="20" y1="20" x2="6.47" y2="15.17"/>
  <polyline class="cls-1" points="30 52.92 30 23 53.52 15.16"/>
  <g>
    <path class="cls-1" d="M54,21v-4.56c0-.86-.55-1.63-1.37-1.9l-22-7.33c-.41-.14-.85-.14-1.26,0L7.37,14.54c-.82.27-1.37,1.04-1.37,1.9v27.12c0,.86.55,1.63,1.37,1.9l22.08,7.36c.36.12.75.14,1.12.04l3.43-.86"/>
    <line class="cls-1" x1="23" y1="21" x2="30" y2="23"/>
  </g>
  <line class="cls-1" x1="14" y1="18" x2="38" y2="10"/>
  <line class="cls-1" x1="23" y1="21" x2="47" y2="13"/>
  <polyline class="cls-1" points="23 21 23 33 17.79 27.97 14 31 14 18"/>
  <g>
    <line class="cls-1" x1="38" y1="33" x2="38" y2="32"/>
    <path class="cls-1" d="M38,28v-1c0-1.1.9-2,2-2h16c1.1,0,2,.9,2,2v28c0,1.1-.9,2-2,2h-16c-1.1,0-2-.9-2-2v-18"/>
    <g>
      <path class="cls-1" d="M46,38h3c1.1,0,2-.9,2-2h0c0-1.1-.9-2-2-2h-1s-1,0-1,0c-1.1,0-2-.9-2-2h0c0-1.1.9-2,2-2h3"/>
      <line class="cls-1" x1="48" y1="28" x2="48" y2="30"/>
      <line class="cls-1" x1="48" y1="38" x2="48" y2="40"/>
    </g>
    <line class="cls-1" x1="38" y1="43" x2="58" y2="43"/>
    <circle class="cls-1" cx="42" cy="47" r="1"/>
    <circle class="cls-1" cx="48" cy="47" r="1"/>
    <circle class="cls-1" cx="54" cy="47" r="1"/>
    <circle class="cls-1" cx="42" cy="53" r="1"/>
    <circle class="cls-1" cx="48" cy="53" r="1"/>
    <circle class="cls-1" cx="54" cy="53" r="1"/>
  </g>
</svg>