<?xml version="1.0" encoding="UTF-8"?>
<svg id="Icons" xmlns="http://www.w3.org/2000/svg" viewBox="0 0 64 64">
  <defs>
    <style>
      .cls-1 {
        fill: #003290;
        stroke-width: 0px;
      }

      .cls-2 {
        fill: none;
        stroke: #003290;
        stroke-linecap: round;
        stroke-linejoin: round;
        stroke-width: 2px;
      }
    </style>
  </defs>
  <g>
    <path class="cls-2" d="M9,31v-12l10-10h22c1.1,0,2,.9,2,2v22"/>
    <line class="cls-2" x1="9" y1="35" x2="9" y2="36"/>
    <path class="cls-2" d="M26,53h-15c-1.1,0-2-.9-2-2v-11"/>
    <polyline class="cls-2" points="19 9 19 19 9 19"/>
    <line class="cls-2" x1="15" y1="25" x2="37" y2="25"/>
    <line class="cls-2" x1="23" y1="19" x2="37" y2="19"/>
    <line class="cls-2" x1="15" y1="31" x2="37" y2="31"/>
  </g>
  <g>
    <polygon class="cls-2" points="49 55 35 55 37 43 47 43 49 55"/>
    <line class="cls-2" x1="31" y1="45" x2="31" y2="50"/>
    <line class="cls-2" x1="53" y1="45" x2="53" y2="50"/>
    <polyline class="cls-2" points="47.33 45 55 45 55 39 36 39 36 37 29 37 29 39 29 45 36.67 45"/>
    <line class="cls-2" x1="30" y1="50" x2="32" y2="50"/>
    <line class="cls-2" x1="52" y1="50" x2="54" y2="50"/>
    <rect class="cls-1" x="31" y="39" width="1" height="1"/>
    <rect class="cls-1" x="33" y="39" width="1" height="1"/>
    <circle class="cls-2" cx="44.5" cy="47.5" r=".5"/>
    <polygon class="cls-1" points="41 47 38 52 44 52 41 47"/>
    <polygon class="cls-1" points="42 52 44 50 46 52 42 52"/>
  </g>
  <line class="cls-2" x1="36" y1="43" x2="48" y2="43"/>
</svg>