<?xml version="1.0" encoding="UTF-8"?>
<svg id="Icons" xmlns="http://www.w3.org/2000/svg" viewBox="0 0 64 64">
  <defs>
    <style>
      .cls-1 {
        fill: none;
        stroke: #003290;
        stroke-linecap: round;
        stroke-linejoin: round;
        stroke-width: 2px;
      }
    </style>
  </defs>
  <polyline class="cls-1" points="29 10 29 7 35 7 35 11"/>
  <line class="cls-1" x1="26" y1="13" x2="38" y2="15"/>
  <line class="cls-1" x1="26" y1="17" x2="38" y2="19"/>
  <line class="cls-1" x1="26" y1="21" x2="38" y2="23"/>
  <g>
    <polyline class="cls-1" points="50 26 52 26 52 31 12 31 12 26 41 26"/>
    <line class="cls-1" x1="45" y1="26" x2="46" y2="26"/>
    <line class="cls-1" x1="12" y1="31" x2="19" y2="26"/>
    <line class="cls-1" x1="45" y1="31" x2="52" y2="26"/>
    <line class="cls-1" x1="23" y1="31" x2="30" y2="26"/>
    <line class="cls-1" x1="34" y1="31" x2="41" y2="26"/>
  </g>
  <g>
    <rect class="cls-1" x="12" y="52" width="40" height="5"/>
    <line class="cls-1" x1="12" y1="57" x2="19" y2="52"/>
    <line class="cls-1" x1="45" y1="57" x2="52" y2="52"/>
    <line class="cls-1" x1="23" y1="57" x2="30" y2="52"/>
    <line class="cls-1" x1="34" y1="57" x2="41" y2="52"/>
  </g>
  <polyline class="cls-1" points="50 31 50 37 43 37 41 35 23 35 21 37 14 37 14 31"/>
  <polyline class="cls-1" points="50 52 50 46 43 46 41 44 31 44 23 44 21 46 14 46 14 52"/>
  <line class="cls-1" x1="54" y1="41" x2="58" y2="41"/>
  <line class="cls-1" x1="54" y1="37" x2="57" y2="35"/>
  <line class="cls-1" x1="54" y1="45" x2="57" y2="47"/>
  <line class="cls-1" x1="10" y1="41" x2="6" y2="41"/>
  <line class="cls-1" x1="10" y1="37" x2="7" y2="35"/>
  <line class="cls-1" x1="10" y1="45" x2="7" y2="47"/>
</svg>