<?xml version="1.0" encoding="UTF-8"?>
<svg id="Icons" xmlns="http://www.w3.org/2000/svg" viewBox="0 0 64 64">
  <defs>
    <style>
      .cls-1 {
        fill: none;
        stroke: #003290;
        stroke-linecap: round;
        stroke-linejoin: round;
        stroke-width: 2px;
      }
    </style>
  </defs>
  <path class="cls-1" d="M22,12.01c0,3.31-2.24,5.99-5,5.99s-5-2.68-5-5.99,2.24-6.01,5-6.01,5,2.71,5,6.01Z"/>
  <path class="cls-1" d="M15,21c-2,0-3,1-3,3v23l-4,9,4,2,5-11v-9h2l5,9v11h4v-13l-4-7v-4h10l1-4h-11v-6c0-1.41-1-3-4-3"/>
  <line class="cls-1" x1="13" y1="11" x2="26" y2="9"/>
  <path class="cls-1" d="M29,26v-9c0-1.1.9-2,2-2h22c1.1,0,2,.9,2,2v3"/>
  <line class="cls-1" x1="55" y1="25" x2="55" y2="24"/>
  <path class="cls-1" d="M29,38v1c0,1.1.9,2,2,2h22c1.1,0,2-.9,2-2v-10"/>
  <polyline class="cls-1" points="46 15 46 25 42 22 38 25 38 15"/>
</svg>