<?xml version="1.0" encoding="UTF-8"?>
<svg id="Icons" xmlns="http://www.w3.org/2000/svg" viewBox="0 0 64 64">
  <defs>
    <style>
      .cls-1 {
        fill: none;
        stroke: #003290;
        stroke-linecap: round;
        stroke-linejoin: round;
        stroke-width: 2px;
      }
    </style>
  </defs>
  <g>
    <path class="cls-1" d="M41.21,10.39l-2.28-2.29-2.83,2.83,2.29,2.28c-.54.84-.94,1.79-1.17,2.79h-3.22v4h3.22c.23,1,.63,1.95,1.17,2.79l-2.29,2.28,2.83,2.83,2.28-2.29c.84.54,1.79.94,2.79,1.17v3.22h4v-3.22c1-.23,1.95-.63,2.79-1.17l2.28,2.29,2.83-2.83-2.29-2.28c.54-.84.94-1.79,1.17-2.79h3.22v-4h-3.22c-.23-1-.63-1.95-1.17-2.79l2.29-2.28-2.83-2.83-2.28,2.29c-.84-.54-1.79-.94-2.79-1.17v-3.22h-4v3.22c-1,.23-1.95.63-2.79,1.17Z"/>
    <path class="cls-1" d="M50,18c0,2.21-1.79,4-4,4s-4-1.79-4-4,1.79-4,4-4"/>
  </g>
  <g>
    <polyline class="cls-1" points="23 36 33 36 35 40 23 40"/>
    <polyline class="cls-1" points="17 40 6 40 8 36 17 36"/>
    <rect class="cls-1" x="17" y="32" width="6" height="10"/>
    <polyline class="cls-1" points="29 48 32 48 32 58 28 58 28 56 12 56 12 58 8 58 8 48 20 48"/>
    <line class="cls-1" x1="24" y1="48" x2="25" y2="48"/>
    <line class="cls-1" x1="20" y1="42" x2="20" y2="44"/>
    <line class="cls-1" x1="19" y1="52" x2="21" y2="52"/>
    <line class="cls-1" x1="25" y1="52" x2="27" y2="52"/>
    <line class="cls-1" x1="13" y1="52" x2="15" y2="52"/>
    <rect class="cls-1" x="32" y="42" width="4" height="6"/>
    <rect class="cls-1" x="4" y="42" width="4" height="6"/>
    <path class="cls-1" d="M20,31.43h0c0-1.89,1.54-3.43,3.43-3.43h.14c1.89,0,3.43,1.54,3.43,3.43v4.57"/>
  </g>
  <path class="cls-1" d="M11,27v-8c0-3.31,2.69-6,6-6h8l-.02-.11-4.93-4.93"/>
  <path class="cls-1" d="M53,37v8c0,3.31-2.69,6-6,6h-8l.02.11,4.93,4.93"/>
  <line class="cls-1" x1="25" y1="13" x2="20" y2="18"/>
  <line class="cls-1" x1="39" y1="51" x2="44" y2="46"/>
</svg>