<?xml version="1.0" encoding="UTF-8"?>
<svg id="Icons" xmlns="http://www.w3.org/2000/svg" viewBox="0 0 64 64">
  <defs>
    <style>
      .cls-1 {
        fill: none;
        stroke: #003290;
        stroke-linecap: round;
        stroke-linejoin: round;
        stroke-width: 2px;
      }
    </style>
  </defs>
  <path class="cls-1" d="M10,28v-15c0-1.1.9-2,2-2h0"/>
  <path class="cls-1" d="M53,25v17c0,1.1-.9,2-2,2h-24"/>
  <line class="cls-1" x1="44" y1="11" x2="47" y2="11"/>
  <line class="cls-1" x1="40" y1="11" x2="39" y2="11"/>
  <line class="cls-1" x1="24" y1="11" x2="35" y2="11"/>
  <rect class="cls-1" x="16" y="7" width="4" height="8" rx="2" ry="2"/>
  <rect class="cls-1" x="14" y="20" width="5" height="5"/>
  <rect class="cls-1" x="24" y="20" width="5" height="5"/>
  <polyline class="cls-1" points="24 30 29 30 29 35 25 35"/>
  <rect class="cls-1" x="34" y="20" width="5" height="5"/>
  <rect class="cls-1" x="34" y="30" width="5" height="5"/>
  <rect class="cls-1" x="44" y="30" width="5" height="5"/>
  <g>
    <path class="cls-1" d="M52.34,20.66l-1.41,1.41-5.66-5.66,1.41-1.41c.78-.78,2.05-.78,2.83,0h0s2.12-2.12,2.12-2.12l-.71-2.12,1.41-1.41,5.66,5.66-1.41,1.41-2.12-.71-2.12,2.12h0c.78.78.78,2.05,0,2.83Z"/>
    <line class="cls-1" x1="48.1" y1="19.24" x2="44.56" y2="22.78"/>
  </g>
  <g>
    <path class="cls-1" d="M26,55v-3c0-4.35-3.08-6.72-7-8l-3,8-3-8c-3.92,1.28-7,3.65-7,8v3c5.67,2.14,11.67,3.15,20,0Z"/>
    <ellipse class="cls-1" cx="16" cy="35" rx="5" ry="6"/>
  </g>
</svg>