<?xml version="1.0" encoding="UTF-8"?>
<svg xmlns="http://www.w3.org/2000/svg" viewBox="0 0 64 64">
  <defs>
    <style>
      .cls-1 {
        fill: #fbb03b;
      }

      .cls-1, .cls-2, .cls-3 {
        stroke-width: 0px;
      }

      .cls-2 {
        fill: #c1272d;
      }

      .cls-3 {
        fill: #009245;
      }

      .cls-4 {
        fill: none;
        stroke: #003290;
        stroke-linecap: round;
        stroke-linejoin: round;
        stroke-width: 2px;
      }
    </style>
  </defs>
  <g id="Filled_Color" data-name="Filled Color">
    <circle class="cls-1" cx="39" cy="25" r="3"/>
    <circle class="cls-2" cx="55" cy="17" r="3"/>
    <circle class="cls-3" cx="55" cy="33" r="3"/>
  </g>
  <g id="Icons">
    <g>
      <g>
        <line class="cls-4" x1="13" y1="25" x2="14" y2="24"/>
        <path class="cls-4" d="M17,21l2.99-3,12.73,12.73-12.73,12.73c-1.56,1.56-3.97,1.69-5.38.28l-7.64-7.64c-1.41-1.41-1.28-3.81.28-5.37l2.74-2.73"/>
      </g>
      <circle class="cls-4" cx="21" cy="29" r="2"/>
      <path class="cls-4" d="M27,25v-11c0-1.66-1.34-3-3-3-.83,0-1.58.34-2.12.88s-.88,1.29-.88,2.12v5h0v8"/>
      <path class="cls-4" d="M39,48c0,2.76-2.24,5-5,5s-5-2.24-5-5,5-11,5-11c0,0,5,8.24,5,11Z"/>
      <circle class="cls-4" cx="39" cy="25" r="3"/>
      <circle class="cls-4" cx="55" cy="17" r="3"/>
      <line class="cls-4" x1="46" y1="25" x2="58" y2="25"/>
      <line class="cls-4" x1="36" y1="17" x2="48" y2="17"/>
      <circle class="cls-4" cx="55" cy="33" r="3"/>
      <line class="cls-4" x1="36" y1="33" x2="48" y2="33"/>
    </g>
  </g>
</svg>