<?xml version="1.0" encoding="UTF-8"?>
<svg id="Icons" xmlns="http://www.w3.org/2000/svg" viewBox="0 0 64 64">
  <defs>
    <style>
      .cls-1 {
        fill: #003290;
        stroke-width: 0px;
      }
    </style>
  </defs>
  <path class="cls-1" d="M17.15,55.26c-1.28,0-2.56-.49-3.54-1.46l-4.24-4.24c-1.95-1.95-1.95-5.12,0-7.07l1.41-1.41c.39-.39,1.02-.39,1.41,0l9.9,9.9c.19.19.29.44.29.71s-.11.52-.29.71l-1.41,1.41c-.97.97-2.25,1.46-3.54,1.46ZM11.49,43.19l-.71.71c-1.17,1.17-1.17,3.07,0,4.24l4.24,4.24c1.17,1.17,3.07,1.17,4.24,0h0l.71-.71-8.48-8.49Z"/>
  <path class="cls-1" d="M24.93,50.56c-.26,0-.51-.1-.71-.29l-11.31-11.31c-.39-.39-.39-1.02,0-1.41,4.27-4.27,7.12-8.43,8.97-13.1.12-.31.4-.54.73-.61.33-.07.67.03.91.27l7.09,7.09c.39.39.39,1.02,0,1.41s-1.02.39-1.41,0l-6.04-6.04c-1.83,4.08-4.5,7.92-8.13,11.67l9.91,9.91c3.95-3.84,7.63-6.41,11.65-8.15l-1.05-1.05c-.39-.39-.39-1.02,0-1.41s1.02-.39,1.41,0l2.12,2.12c.24.24.34.59.27.92-.07.33-.31.61-.63.73-4.56,1.72-8.6,4.48-13.08,8.96-.2.2-.45.29-.71.29Z"/>
  <path class="cls-1" d="M33.41,36.41c-.26,0-.51-.1-.71-.29l-.69-.69c-.39-.39-.39-1.02,0-1.41s1.02-.39,1.41,0l.69.69c.39.39.39,1.02,0,1.41-.2.2-.45.29-.71.29Z"/>
  <path class="cls-1" d="M42.64,39.99c-.26,0-.52-.1-.71-.29l-18.59-18.58c-.26-.26-.35-.64-.25-.99.92-3.16,1.31-6.87,1.69-10.45.13-1.2.88-2.15,1.96-2.53,1.11-.39,2.31-.12,3.15.71h0l25.43,25.43c.82.82,1.1,2,.73,3.09-.37,1.09-1.31,1.86-2.45,2.01-1.04.14-2.1.25-3.16.37-2.73.3-5.31.58-7.53,1.2-.09.02-.18.04-.27.04ZM25.18,20.11l17.77,17.77c2.25-.56,4.81-.84,7.28-1.11,1.04-.11,2.08-.23,3.11-.36.39-.05.69-.3.82-.67.06-.18.16-.63-.25-1.04L28.48,9.27c-.43-.43-.92-.29-1.07-.24-.17.06-.58.26-.64.8-.37,3.51-.75,7.08-1.6,10.28Z"/>
  <path class="cls-1" d="M38.77,58.09c-.68,0-1.36-.17-1.99-.53l-8.81-5.01c-.27-.16-.46-.43-.5-.74s.07-.63.3-.84c1.75-1.69,3.45-3.12,5.05-4.26.32-.23.74-.24,1.08-.05l6.88,3.98c.92.53,1.59,1.4,1.86,2.43.28,1.03.13,2.11-.4,3.03-.74,1.28-2.09,2-3.47,2ZM30.13,51.48l7.64,4.34c.96.55,2.18.22,2.73-.73.27-.46.34-1,.2-1.52s-.47-.95-.93-1.21l-6.32-3.65c-1.07.79-2.18,1.72-3.33,2.77Z"/>
  <path class="cls-1" d="M44.73,19.44c-.26,0-.51-.1-.71-.29-.39-.39-.39-1.02,0-1.41l4.24-4.24c.39-.39,1.02-.39,1.41,0s.39,1.02,0,1.41l-4.24,4.24c-.2.2-.45.29-.71.29Z"/>
  <path class="cls-1" d="M38.36,13.08c-.08,0-.16,0-.24-.03-.54-.13-.86-.68-.73-1.21l1.41-5.66c.13-.54.68-.86,1.21-.73.54.13.86.68.73,1.21l-1.41,5.66c-.11.45-.52.76-.97.76Z"/>
  <path class="cls-1" d="M51.09,25.81c-.45,0-.86-.3-.97-.76-.13-.54.19-1.08.73-1.21l5.66-1.41c.54-.13,1.08.19,1.21.73.13.54-.19,1.08-.73,1.21l-5.66,1.41c-.08.02-.16.03-.24.03Z"/>
</svg>