<?xml version="1.0" encoding="UTF-8"?>
<svg id="Icons" xmlns="http://www.w3.org/2000/svg" viewBox="0 0 64 64">
  <defs>
    <style>
      .cls-1 {
        fill: #003290;
        stroke-width: 0px;
      }
    </style>
  </defs>
  <path class="cls-1" d="M17,19c-3.31,0-6-3.14-6-7s2.69-7,6-7,6,3.14,6,7-2.69,7-6,7ZM17,7c-2.21,0-4,2.24-4,5s1.79,5,4,5,4-2.24,4-5-1.79-5-4-5Z"/>
  <path class="cls-1" d="M10,59c-.08,0-.16,0-.24-.03l-4-1c-.52-.13-.85-.65-.74-1.18l3.99-18.93,1-13.93c0-1.36,1.33-3.93,4-3.93.55,0,1,.45,1,1s-.45,1-1,1c-1.4,0-2,1.52-2,2l-1,14.07s0,.09-.02.13l-3.8,18.06,2.1.52,4.76-19.03c.11-.44.51-.76.97-.76h3c.55,0,1,.45,1,1v8c0,.55-.45,1-1,1s-1-.45-1-1v-7h-1.22l-4.81,19.24c-.11.45-.52.76-.97.76Z"/>
  <path class="cls-1" d="M18,52.03c-.55,0-1-.45-1-1v-1.03c0-.55.45-1,1-1s1,.45,1,1v1.03c0,.55-.45,1-1,1Z"/>
  <path class="cls-1" d="M22,59h-4c-.55,0-1-.45-1-1v-3c0-.55.45-1,1-1s1,.45,1,1v2h2.05l.95-19.05v-6.95c0-.3.13-.58.36-.77s.54-.27.83-.21l9.13,1.83.4-1.21-8.05-2.68c-.15-.05-.28-.13-.39-.24l-2-2c-.19-.19-.29-.44-.29-.71v-1c0-.8-.53-2-2-2-.55,0-1-.45-1-1s.45-1,1-1c2.6,0,4,2.06,4,4v.59l1.54,1.54,8.78,2.93c.52.17.81.74.63,1.27l-1,3c-.16.48-.65.76-1.15.66l-8.8-1.76v5.78l-1,20.05c-.03.53-.47.95-1,.95Z"/>
  <path class="cls-1" d="M56,52h-15c-.49,0-.91-.35-.99-.84l-2-12c-.05-.29.03-.59.22-.81.19-.22.47-.35.76-.35h19c.29,0,.57.13.76.35.19.22.27.52.22.81l-2,12c-.08.48-.5.84-.99.84ZM41.85,50h13.31l1.67-10h-16.64l1.67,10Z"/>
  <path class="cls-1" d="M43,58c-1.65,0-3-1.35-3-3s1.35-3,3-3,3,1.35,3,3-1.35,3-3,3ZM43,54c-.55,0-1,.45-1,1s.45,1,1,1,1-.45,1-1-.45-1-1-1Z"/>
  <path class="cls-1" d="M54,58c-1.65,0-3-1.35-3-3s1.35-3,3-3,3,1.35,3,3-1.35,3-3,3ZM54,54c-.55,0-1,.45-1,1s.45,1,1,1,1-.45,1-1-.45-1-1-1Z"/>
  <path class="cls-1" d="M51,52c-.05,0-.11,0-.17-.01-.54-.09-.91-.61-.82-1.15l2-12c.09-.54.6-.91,1.15-.82.54.09.91.61.82,1.15l-2,12c-.08.49-.51.84-.99.84Z"/>
  <path class="cls-1" d="M46,52c-.48,0-.9-.35-.99-.84l-2-12c-.09-.54.28-1.06.82-1.15.55-.09,1.06.28,1.15.82l2,12c.09.54-.28,1.06-.82,1.15-.06,0-.11.01-.17.01Z"/>
  <path class="cls-1" d="M39,40c-.29,0-.58-.13-.78-.38l-4-5c-.35-.43-.28-1.06.16-1.41.43-.34,1.06-.27,1.41.16l4,5c.35.43.28,1.06-.16,1.41-.18.15-.4.22-.62.22Z"/>
  <path class="cls-1" d="M23,32c-.19,0-.38-.05-.55-.17l-3-2c-.46-.31-.58-.93-.28-1.39.31-.46.93-.58,1.39-.28l3,2c.46.31.58.93.28,1.39-.19.29-.51.45-.83.45Z"/>
</svg>