<?xml version="1.0" encoding="UTF-8"?>
<svg id="Icons" xmlns="http://www.w3.org/2000/svg" viewBox="0 0 64 64">
  <defs>
    <style>
      .cls-1 {
        fill: #590000;
      }

      .cls-1, .cls-2 {
        stroke-width: 0px;
      }

      .cls-2 {
        fill: #003290;
      }
    </style>
  </defs>
  <path class="cls-2" d="M58,32c-.55,0-1-.45-1-1v-.95c0-.55.45-1,1-1s1,.45,1,1v.95c0,.55-.45,1-1,1Z"/>
  <path class="cls-2" d="M19.37,55c-4.67,0-9.32-.67-13.54-2.01-.47-.08-.83-.49-.83-.98h0V12c0-.55.45-1,1-1,.16,0,.31.04.44.1,7.37,2.34,16.8,2.23,25.28-.29,7.67-2.47,18.29-2.39,26.45.2.47.08.83.49.83.99v14c0,.55-.45,1-1,1s-1-.45-1-1v-13.25c-7.72-2.31-17.54-2.33-24.69-.03-8.42,2.51-17.76,2.72-25.31.63v37.9c7.73,2.33,16.91,2.34,24.71.02,7.75-2.5,17.72-2.74,25.29-.67v-15.6c0-.55.45-1,1-1s1,.45,1,1v16.95c0,.55-.45,1-1,1-.16,0-.31-.04-.44-.1-7.31-2.32-17.44-2.19-25.25.33-4.08,1.21-8.51,1.82-12.94,1.82Z"/>
  <path class="cls-2" d="M14,22h-4c-.55,0-1-.45-1-1v-4c0-.55.45-1,1-1h4c.55,0,1,.45,1,1v4c0,.55-.45,1-1,1ZM11,20h2v-2h-2v2Z"/>
  <path class="cls-2" d="M24,22h-4c-.55,0-1-.45-1-1v-4c0-.55.45-1,1-1h4c.55,0,1,.45,1,1v4c0,.55-.45,1-1,1ZM21,20h2v-2h-2v2Z"/>
  <path class="cls-2" d="M34,21h-4c-.55,0-1-.45-1-1v-4c0-.55.45-1,1-1h4c.55,0,1,.45,1,1v4c0,.55-.45,1-1,1ZM31,19h2v-2h-2v2Z"/>
  <path class="cls-2" d="M44,19h-4c-.55,0-1-.45-1-1v-4c0-.55.45-1,1-1h4c.55,0,1,.45,1,1v4c0,.55-.45,1-1,1ZM41,17h2v-2h-2v2Z"/>
  <path class="cls-2" d="M54,19h-4c-.55,0-1-.45-1-1v-4c0-.55.45-1,1-1h4c.55,0,1,.45,1,1v4c0,.55-.45,1-1,1ZM51,17h2v-2h-2v2Z"/>
  <path class="cls-2" d="M14,51h-4c-.55,0-1-.45-1-1v-4c0-.55.45-1,1-1h4c.55,0,1,.45,1,1v4c0,.55-.45,1-1,1ZM11,49h2v-2h-2v2Z"/>
  <path class="cls-2" d="M24,51h-4c-.55,0-1-.45-1-1v-4c0-.55.45-1,1-1h4c.55,0,1,.45,1,1v4c0,.55-.45,1-1,1ZM21,49h2v-2h-2v2Z"/>
  <path class="cls-2" d="M34,49h-4c-.55,0-1-.45-1-1v-4c0-.55.45-1,1-1h4c.55,0,1,.45,1,1v4c0,.55-.45,1-1,1ZM31,47h2v-2h-2v2Z"/>
  <path class="cls-2" d="M44,48h-4c-.55,0-1-.45-1-1v-4c0-.55.45-1,1-1h4c.55,0,1,.45,1,1v4c0,.55-.45,1-1,1ZM41,46h2v-2h-2v2Z"/>
  <path class="cls-2" d="M54,48h-4c-.55,0-1-.45-1-1v-4c0-.55.45-1,1-1h4c.55,0,1,.45,1,1v4c0,.55-.45,1-1,1ZM51,46h2v-2h-2v2Z"/>
  <path class="cls-1" d="M15.98,43.21c-1.74,0-3.73-.06-6.05-.21-.53-.03-.94-.47-.94-1v-17c0-.28.11-.54.32-.73.2-.19.46-.29.75-.27,8.77.55,12.65-.12,16.76-.82,3.38-.58,6.87-1.18,13.18-1.18.55,0,1,.45,1,1v17c0,.55-.45,1-1,1-6.14,0-9.55.58-12.84,1.15-3.14.54-6.15,1.06-11.17,1.06ZM11,41.06c8.11.44,11.86-.2,15.82-.88,3.19-.55,6.49-1.11,12.18-1.17v-15c-5.52.06-8.73.61-11.84,1.14-4.06.7-7.9,1.35-16.16.91v15Z"/>
  <path class="cls-1" d="M54,40c-.1,0-.21-.02-.32-.05-2.81-.94-4.62-.93-8.44.02-.3.07-.61,0-.86-.18s-.38-.48-.38-.79v-16c0-.46.31-.86.76-.97,4.21-1.05,6.35-1.05,9.56.02.52.17.81.74.63,1.27-.17.52-.74.81-1.26.63-2.62-.87-4.37-.93-7.68-.16v13.95c3.42-.75,5.44-.64,8.32.31.52.17.81.74.63,1.27-.14.42-.53.68-.95.68Z"/>
</svg>