<?xml version="1.0" encoding="UTF-8"?>
<svg id="Icons" xmlns="http://www.w3.org/2000/svg" viewBox="0 0 64 64">
  <defs>
    <style>
      .cls-1 {
        fill: #003290;
        stroke-width: 0px;
      }
    </style>
  </defs>
  <path class="cls-1" d="M48,33c-.55,0-1-.45-1-1V12c0-.55-.45-1-1-1h-21.59l-9.41,9.41v11.59c0,.55-.45,1-1,1s-1-.45-1-1v-12c0-.27.11-.52.29-.71l10-10c.19-.19.44-.29.71-.29h22c1.65,0,3,1.35,3,3v20c0,.55-.45,1-1,1Z"/>
  <path class="cls-1" d="M14,38c-.55,0-1-.45-1-1v-.98c0-.55.45-1,1-1s1,.45,1,1v.98c0,.55-.45,1-1,1Z"/>
  <path class="cls-1" d="M38,55h-22c-1.65,0-3-1.35-3-3v-11c0-.55.45-1,1-1s1,.45,1,1v11c0,.55.45,1,1,1h22c.55,0,1,.45,1,1s-.45,1-1,1Z"/>
  <path class="cls-1" d="M24,21h-10c-.55,0-1-.45-1-1s.45-1,1-1h9v-9c0-.55.45-1,1-1s1,.45,1,1v10c0,.55-.45,1-1,1Z"/>
  <path class="cls-1" d="M42,27h-22c-.55,0-1-.45-1-1s.45-1,1-1h22c.55,0,1,.45,1,1s-.45,1-1,1Z"/>
  <path class="cls-1" d="M42,21h-14c-.55,0-1-.45-1-1s.45-1,1-1h14c.55,0,1,.45,1,1s-.45,1-1,1Z"/>
  <path class="cls-1" d="M42,33h-22c-.55,0-1-.45-1-1s.45-1,1-1h22c.55,0,1,.45,1,1s-.45,1-1,1Z"/>
  <g>
    <path class="cls-1" d="M45.01,53c-3.3,0-5.99-2.24-5.99-5,0-.55.45-1,1-1s1,.45,1,1c0,1.65,1.79,3,3.99,3s3.99-1.35,3.99-3c0-.5,0-2.01-4.22-3.03-1.42-.34-5.75-1.38-5.75-4.97,0-2.76,2.69-5,5.99-5s5.99,2.24,5.99,5c0,.55-.45,1-1,1s-1-.45-1-1c0-1.65-1.79-3-3.99-3s-3.99,1.35-3.99,3c0,.5,0,2.01,4.22,3.03,1.42.34,5.75,1.38,5.75,4.97,0,2.76-2.69,5-5.99,5Z"/>
    <path class="cls-1" d="M45,39c-.55,0-1-.45-1-1v-4c0-.55.45-1,1-1s1,.45,1,1v4c0,.55-.45,1-1,1Z"/>
    <path class="cls-1" d="M45,55c-.55,0-1-.45-1-1v-4c0-.55.45-1,1-1s1,.45,1,1v4c0,.55-.45,1-1,1Z"/>
  </g>
</svg>