<?xml version="1.0" encoding="UTF-8"?>
<svg id="Icons" xmlns="http://www.w3.org/2000/svg" viewBox="0 0 64 64">
  <defs>
    <style>
      .cls-1 {
        fill: #003290;
        stroke-width: 0px;
      }
    </style>
  </defs>
  <path class="cls-1" d="M20,21c-.11,0-.22-.02-.34-.06l-13.53-4.83c-.52-.19-.79-.76-.61-1.28.18-.52.75-.79,1.28-.61l13.53,4.83c.52.19.79.76.61,1.28-.15.41-.53.66-.94.66Z"/>
  <path class="cls-1" d="M30,53.92c-.55,0-1-.45-1-1v-29.92c0-.43.28-.81.68-.95l23.52-7.84c.53-.18,1.09.11,1.26.63.17.52-.11,1.09-.63,1.27l-22.84,7.61v29.2c0,.55-.45,1-1,1Z"/>
  <g>
    <path class="cls-1" d="M30.08,53.92c-.32,0-.64-.05-.95-.15l-22.08-7.36c-1.23-.41-2.05-1.55-2.05-2.85v-27.12c0-1.29.82-2.44,2.05-2.85l22-7.33c.61-.2,1.29-.2,1.9,0l22,7.33c1.23.41,2.05,1.55,2.05,2.85v4.56c0,.55-.45,1-1,1s-1-.45-1-1v-4.56c0-.43-.27-.81-.68-.95l-22-7.33c-.21-.07-.43-.07-.63,0L7.68,15.49c-.41.14-.68.52-.68.95v27.12c0,.43.27.81.68.95l22.08,7.36c.18.06.38.07.56.02l3.43-.86c.53-.13,1.08.19,1.21.73.13.54-.19,1.08-.73,1.21l-3.43.86c-.24.06-.48.09-.73.09Z"/>
    <path class="cls-1" d="M30,24c-.09,0-.18-.01-.28-.04l-7-2c-.53-.15-.84-.71-.69-1.24.15-.53.71-.84,1.24-.69l7,2c.53.15.84.71.69,1.24-.13.44-.53.73-.96.73Z"/>
  </g>
  <path class="cls-1" d="M14,19c-.42,0-.81-.27-.95-.68-.17-.52.11-1.09.63-1.27l24-8c.53-.18,1.09.11,1.26.63.17.52-.11,1.09-.63,1.27l-24,8c-.11.04-.21.05-.32.05Z"/>
  <path class="cls-1" d="M23,22c-.42,0-.81-.27-.95-.68-.17-.52.11-1.09.63-1.27l24-8c.53-.18,1.09.11,1.26.63.17.52-.11,1.09-.63,1.27l-24,8c-.11.04-.21.05-.32.05Z"/>
  <path class="cls-1" d="M23,34c-.25,0-.5-.1-.69-.28l-4.57-4.42-3.11,2.48c-.3.24-.71.29-1.06.12-.35-.17-.57-.52-.57-.9v-13c0-.55.45-1,1-1s1,.45,1,1v10.92l2.17-1.73c.39-.31.96-.29,1.32.06l3.51,3.39v-9.64c0-.55.45-1,1-1s1,.45,1,1v12c0,.4-.24.76-.61.92-.13.05-.26.08-.39.08Z"/>
  <g>
    <path class="cls-1" d="M38,34c-.55,0-1-.45-1-1v-1c0-.55.45-1,1-1s1,.45,1,1v1c0,.55-.45,1-1,1Z"/>
    <path class="cls-1" d="M56,58h-16c-1.65,0-3-1.35-3-3v-18c0-.55.45-1,1-1s1,.45,1,1v18c0,.55.45,1,1,1h16c.55,0,1-.45,1-1v-28c0-.55-.45-1-1-1h-16c-.55,0-1,.45-1,1v1c0,.55-.45,1-1,1s-1-.45-1-1v-1c0-1.65,1.35-3,3-3h16c1.65,0,3,1.35,3,3v28c0,1.65-1.35,3-3,3Z"/>
    <path class="cls-1" d="M58,44h-20c-.55,0-1-.45-1-1s.45-1,1-1h20c.55,0,1,.45,1,1s-.45,1-1,1Z"/>
    <path class="cls-1" d="M42,49c-1.1,0-2-.9-2-2s.9-2,2-2,2,.9,2,2-.9,2-2,2ZM42,47h0,0ZM42,47h0,0ZM42,47h0,0ZM42,47h0,0ZM42,47h0,0ZM42,47h0,0ZM42,47h0,0ZM42,47h0,0Z"/>
    <path class="cls-1" d="M48,49c-1.1,0-2-.9-2-2s.9-2,2-2,2,.9,2,2-.9,2-2,2ZM48,47h0,0ZM48,47h0,0ZM48,47h0,0ZM48,47h0,0ZM48,47h0,0ZM48,47h0,0ZM48,47h0,0ZM48,47h0,0Z"/>
    <path class="cls-1" d="M54,49c-1.1,0-2-.9-2-2s.9-2,2-2,2,.9,2,2-.9,2-2,2ZM54,47h0,0ZM54,47h0,0ZM54,47h0,0ZM54,47h0,0ZM54,47h0,0ZM54,47h0,0ZM54,47h0,0ZM54,47h0,0Z"/>
    <path class="cls-1" d="M42,55c-1.1,0-2-.9-2-2s.9-2,2-2,2,.9,2,2-.9,2-2,2ZM42,53h0,0ZM42,53h0,0ZM42,53h0,0ZM42,53h0,0ZM42,53h0,0ZM42,53h0,0ZM42,53h0,0ZM42,53h0,0Z"/>
    <path class="cls-1" d="M48,55c-1.1,0-2-.9-2-2s.9-2,2-2,2,.9,2,2-.9,2-2,2ZM48,53h0,0ZM48,53h0,0ZM48,53h0,0ZM48,53h0,0ZM48,53h0,0ZM48,53h0,0ZM48,53h0,0ZM48,53h0,0Z"/>
    <path class="cls-1" d="M54,55c-1.1,0-2-.9-2-2s.9-2,2-2,2,.9,2,2-.9,2-2,2ZM54,53h0,0ZM54,53h0,0ZM54,53h0,0ZM54,53h0,0ZM54,53h0,0ZM54,53h0,0ZM54,53h0,0ZM54,53h0,0Z"/>
    <path class="cls-1" d="M49,39h-3c-.55,0-1-.45-1-1s.45-1,1-1h3c.55,0,1-.45,1-1s-.45-1-1-1h-2c-1.65,0-3-1.35-3-3s1.35-3,3-3h3c.55,0,1,.45,1,1s-.45,1-1,1h-3c-.55,0-1,.45-1,1s.45,1,1,1h2c1.65,0,3,1.35,3,3s-1.35,3-3,3Z"/>
    <path class="cls-1" d="M48,31c-.55,0-1-.45-1-1v-2c0-.55.45-1,1-1s1,.45,1,1v2c0,.55-.45,1-1,1Z"/>
    <path class="cls-1" d="M48,41c-.55,0-1-.45-1-1v-2c0-.55.45-1,1-1s1,.45,1,1v2c0,.55-.45,1-1,1Z"/>
  </g>
</svg>