<?xml version="1.0" encoding="UTF-8"?>
<svg id="Icons" xmlns="http://www.w3.org/2000/svg" viewBox="0 0 64 64">
  <defs>
    <style>
      .cls-1 {
        fill: #c1272d;
      }

      .cls-1, .cls-2, .cls-3 {
        stroke-width: 0px;
      }

      .cls-2 {
        fill: #003290;
      }

      .cls-3 {
        fill: #009245;
      }
    </style>
  </defs>
  <g>
    <path class="cls-2" d="M43,34c-.55,0-1-.45-1-1V11c0-.55-.45-1-1-1h-21.59l-9.41,9.41v11.59c0,.55-.45,1-1,1s-1-.45-1-1v-12c0-.27.11-.52.29-.71l10-10c.19-.19.44-.29.71-.29h22c1.65,0,3,1.35,3,3v22c0,.55-.45,1-1,1Z"/>
    <path class="cls-2" d="M9,37c-.55,0-1-.45-1-1v-1c0-.55.45-1,1-1s1,.45,1,1v1c0,.55-.45,1-1,1Z"/>
    <path class="cls-2" d="M26,54h-15c-1.65,0-3-1.35-3-3v-11c0-.55.45-1,1-1s1,.45,1,1v11c0,.55.45,1,1,1h15c.55,0,1,.45,1,1s-.45,1-1,1Z"/>
    <path class="cls-2" d="M19,20h-10c-.55,0-1-.45-1-1s.45-1,1-1h9v-9c0-.55.45-1,1-1s1,.45,1,1v10c0,.55-.45,1-1,1Z"/>
    <path class="cls-2" d="M37,26H15c-.55,0-1-.45-1-1s.45-1,1-1h22c.55,0,1,.45,1,1s-.45,1-1,1Z"/>
    <path class="cls-2" d="M37,20h-14c-.55,0-1-.45-1-1s.45-1,1-1h14c.55,0,1,.45,1,1s-.45,1-1,1Z"/>
    <path class="cls-2" d="M37,32H15c-.55,0-1-.45-1-1s.45-1,1-1h22c.55,0,1,.45,1,1s-.45,1-1,1Z"/>
  </g>
  <g>
    <path class="cls-2" d="M49,56h-14c-.29,0-.57-.13-.76-.35-.19-.22-.27-.52-.22-.81l2-12c.08-.48.5-.84.99-.84h10c.49,0,.91.35.99.84l2,12c.05.29-.03.59-.22.81-.19.22-.47.35-.76.35ZM36.18,54h11.64l-1.67-10h-8.31l-1.67,10Z"/>
    <path class="cls-2" d="M31,51c-.55,0-1-.45-1-1v-5c0-.55.45-1,1-1s1,.45,1,1v5c0,.55-.45,1-1,1Z"/>
    <path class="cls-2" d="M53,51c-.55,0-1-.45-1-1v-5c0-.55.45-1,1-1s1,.45,1,1v5c0,.55-.45,1-1,1Z"/>
    <path class="cls-2" d="M55,46h-7.67c-.55,0-1-.45-1-1s.45-1,1-1h6.67v-4h-18c-.55,0-1-.45-1-1v-1h-5v6h6.67c.55,0,1,.45,1,1s-.45,1-1,1h-7.67c-.55,0-1-.45-1-1v-8c0-.55.45-1,1-1h7c.55,0,1,.45,1,1v1h18c.55,0,1,.45,1,1v6c0,.55-.45,1-1,1Z"/>
    <path class="cls-2" d="M32,51h-2c-.55,0-1-.45-1-1s.45-1,1-1h2c.55,0,1,.45,1,1s-.45,1-1,1Z"/>
    <path class="cls-2" d="M54,51h-2c-.55,0-1-.45-1-1s.45-1,1-1h2c.55,0,1,.45,1,1s-.45,1-1,1Z"/>
    <rect class="cls-2" x="31" y="39" width="1" height="1"/>
    <rect class="cls-2" x="33" y="39" width="1" height="1"/>
    <path class="cls-1" d="M44.5,49c-.83,0-1.5-.67-1.5-1.5s.67-1.5,1.5-1.5,1.5.67,1.5,1.5-.67,1.5-1.5,1.5ZM44.5,47c-.28,0-.5.22-.5.5s.22.5.5.5.5-.22.5-.5-.22-.5-.5-.5Z"/>
    <polygon class="cls-3" points="41 47 38 52 44 52 41 47"/>
    <polygon class="cls-3" points="42 52 44 50 46 52 42 52"/>
  </g>
  <path class="cls-2" d="M48,44h-12c-.55,0-1-.45-1-1s.45-1,1-1h12c.55,0,1,.45,1,1s-.45,1-1,1Z"/>
</svg>