<?xml version="1.0" encoding="UTF-8"?>
<svg xmlns="http://www.w3.org/2000/svg" viewBox="0 0 64 64">
  <defs>
    <style>
      .cls-1 {
        fill: #c1272d;
      }

      .cls-1, .cls-2, .cls-3 {
        stroke-width: 0px;
      }

      .cls-2 {
        fill: #003290;
      }

      .cls-3 {
        fill: #009245;
      }
    </style>
  </defs>
  <g id="Filled_Color" data-name="Filled Color">
    <polygon class="cls-3" points="37 39 28 53 22 48 22 44 27 47 33 39 37 39"/>
    <polygon class="cls-1" points="50 46 54 50 51 53 47 49 43 53 40 50 44 46 40 42 43 39 47 43 51 39 54 42 50 46"/>
  </g>
  <g id="Icons">
    <g>
      <path class="cls-2" d="M44,36c-.55,0-1-.45-1-1V12c0-.55-.45-1-1-1h-21.59l-9.41,9.41v11.59c0,.55-.45,1-1,1s-1-.45-1-1v-12c0-.27.11-.52.29-.71l10-10c.19-.19.44-.29.71-.29h22c1.65,0,3,1.35,3,3v23c0,.55-.45,1-1,1Z"/>
      <path class="cls-2" d="M10,38c-.55,0-1-.45-1-1v-1c0-.55.45-1,1-1s1,.45,1,1v1c0,.55-.45,1-1,1Z"/>
      <path class="cls-2" d="M24,55h-12c-1.65,0-3-1.35-3-3v-11c0-.55.45-1,1-1s1,.45,1,1v11c0,.55.45,1,1,1h12c.55,0,1,.45,1,1s-.45,1-1,1Z"/>
      <path class="cls-2" d="M20,21h-10c-.55,0-1-.45-1-1s.45-1,1-1h9v-9c0-.55.45-1,1-1s1,.45,1,1v10c0,.55-.45,1-1,1Z"/>
      <path class="cls-2" d="M38,27h-22c-.55,0-1-.45-1-1s.45-1,1-1h22c.55,0,1,.45,1,1s-.45,1-1,1Z"/>
      <path class="cls-2" d="M38,21h-14c-.55,0-1-.45-1-1s.45-1,1-1h14c.55,0,1,.45,1,1s-.45,1-1,1Z"/>
      <path class="cls-2" d="M38,33h-22c-.55,0-1-.45-1-1s.45-1,1-1h22c.55,0,1,.45,1,1s-.45,1-1,1Z"/>
      <path class="cls-2" d="M28,54c-.23,0-.46-.08-.64-.23l-6-5c-.23-.19-.36-.47-.36-.77v-4c0-.36.19-.69.51-.87.31-.18.7-.17,1.01.01l4.23,2.54,5.46-7.28c.19-.25.48-.4.8-.4h4c.37,0,.7.2.88.52.18.32.16.71-.04,1.02l-9,14c-.16.24-.41.4-.69.45-.05,0-.1.01-.15.01ZM23,47.53l4.77,3.98,7.4-11.51h-1.67l-5.7,7.6c-.31.41-.88.52-1.31.26l-3.49-2.09v1.77Z"/>
      <path class="cls-2" d="M51,54c-.26,0-.51-.1-.71-.29l-3.29-3.29-3.29,3.29c-.39.39-1.02.39-1.41,0l-3-3c-.39-.39-.39-1.02,0-1.41l3.29-3.29-3.29-3.29c-.39-.39-.39-1.02,0-1.41l3-3c.39-.39,1.02-.39,1.41,0l3.29,3.29,3.29-3.29c.39-.39,1.02-.39,1.41,0l3,3c.39.39.39,1.02,0,1.41l-3.29,3.29,3.29,3.29c.39.39.39,1.02,0,1.41l-3,3c-.2.2-.45.29-.71.29ZM47,48c.26,0,.51.1.71.29l3.29,3.29,1.59-1.59-3.29-3.29c-.39-.39-.39-1.02,0-1.41l3.29-3.29-1.59-1.59-3.29,3.29c-.39.39-1.02.39-1.41,0l-3.29-3.29-1.59,1.59,3.29,3.29c.39.39.39,1.02,0,1.41l-3.29,3.29,1.59,1.59,3.29-3.29c.2-.2.45-.29.71-.29Z"/>
      <path class="cls-2" d="M39,55h-7c-.55,0-1-.45-1-1s.45-1,1-1h7c.55,0,1,.45,1,1s-.45,1-1,1Z"/>
      <path class="cls-2" d="M48,38c-.55,0-1-.45-1-1V8c0-.55-.45-1-1-1h-24c-.55,0-1-.45-1-1s.45-1,1-1h24c1.65,0,3,1.35,3,3v29c0,.55-.45,1-1,1Z"/>
    </g>
  </g>
</svg>