<?xml version="1.0" encoding="UTF-8"?>
<svg id="Icons" xmlns="http://www.w3.org/2000/svg" viewBox="0 0 64 64">
  <defs>
    <style>
      .cls-1 {
        fill: #003290;
        stroke-width: 0px;
      }
    </style>
  </defs>
  <path class="cls-1" d="M18,59h-6c-.55,0-1-.45-1-1v-23.76c0-1.14.64-2.17,1.66-2.68l18.89-9.45c.5-.25,1.1-.05,1.34.45.25.49.05,1.09-.45,1.34l-18.89,9.45c-.34.17-.55.51-.55.89v22.76h4v-20c0-.55.45-1,1-1h16c.55,0,1,.45,1,1s-.45,1-1,1h-15v20c0,.55-.45,1-1,1Z"/>
  <path class="cls-1" d="M39,38h-1c-.55,0-1-.45-1-1s.45-1,1-1h1c.55,0,1,.45,1,1s-.45,1-1,1Z"/>
  <path class="cls-1" d="M52,59h-6c-.55,0-1-.45-1-1v-20h-2c-.55,0-1-.45-1-1s.45-1,1-1h3c.55,0,1,.45,1,1v20h4v-22.76c0-.38-.21-.72-.55-.89l-2.89-1.45c-.49-.25-.69-.85-.45-1.34.25-.49.85-.69,1.34-.45l2.89,1.45c1.02.51,1.66,1.54,1.66,2.68v23.76c0,.55-.45,1-1,1Z"/>
  <path class="cls-1" d="M42,43h-20c-.55,0-1-.45-1-1s.45-1,1-1h20c.55,0,1,.45,1,1s-.45,1-1,1Z"/>
  <path class="cls-1" d="M42,55h-20c-.55,0-1-.45-1-1s.45-1,1-1h20c.55,0,1,.45,1,1s-.45,1-1,1Z"/>
  <path class="cls-1" d="M42,49h-20c-.55,0-1-.45-1-1s.45-1,1-1h20c.55,0,1,.45,1,1s-.45,1-1,1Z"/>
  <g>
    <path class="cls-1" d="M43,21c-3.31,0-6-2.69-6-6s2.69-6,6-6,6,2.69,6,6-2.69,6-6,6ZM43,11c-2.21,0-4,1.79-4,4s1.79,4,4,4,4-1.79,4-4-1.79-4-4-4Z"/>
    <path class="cls-1" d="M43,31c-.28,0-.55-.12-.74-.33-.95-1.06-9.26-10.46-9.26-15.67,0-5.51,4.49-10,10-10s10,4.49,10,10c0,5.2-8.31,14.61-9.26,15.67-.19.21-.46.33-.74.33ZM43,7c-4.41,0-8,3.59-8,8,0,3.42,5.23,10.24,8,13.48,2.77-3.24,8-10.06,8-13.48,0-4.41-3.59-8-8-8Z"/>
  </g>
</svg>