<?xml version="1.0" encoding="UTF-8"?>
<svg id="Icons" xmlns="http://www.w3.org/2000/svg" viewBox="0 0 64 64">
  <defs>
    <style>
      .cls-1 {
        fill: #003290;
        stroke-width: 0px;
      }
    </style>
  </defs>
  <path class="cls-1" d="M50,53c-.55,0-1-.45-1-1v-5h-6c-.27,0-.52-.11-.71-.29l-1.71-1.71h-17.17l-1.71,1.71c-.19.19-.44.29-.71.29h-6v5c0,.55-.45,1-1,1s-1-.45-1-1v-6c0-.55.45-1,1-1h6.59l1.71-1.71c.19-.19.44-.29.71-.29h18c.27,0,.52.11.71.29l1.71,1.71h6.59c.55,0,1,.45,1,1v6c0,.55-.45,1-1,1Z"/>
  <path class="cls-1" d="M50,38h-7c-.27,0-.52-.11-.71-.29l-1.71-1.71h-17.17l-1.71,1.71c-.19.19-.44.29-.71.29h-7c-.55,0-1-.45-1-1v-6c0-.55.45-1,1-1s1,.45,1,1v5h5.59l1.71-1.71c.19-.19.44-.29.71-.29h18c.27,0,.52.11.71.29l1.71,1.71h5.59v-5c0-.55.45-1,1-1s1,.45,1,1v6c0,.55-.45,1-1,1Z"/>
  <path class="cls-1" d="M35,12c-.55,0-1-.45-1-1v-3h-4v2c0,.55-.45,1-1,1s-1-.45-1-1v-3c0-.55.45-1,1-1h6c.55,0,1,.45,1,1v4c0,.55-.45,1-1,1Z"/>
  <path class="cls-1" d="M38,16c-.05,0-.11,0-.17-.01l-12-2c-.54-.09-.91-.61-.82-1.15.09-.54.6-.91,1.15-.82l12,2c.54.09.91.61.82,1.15-.08.49-.5.84-.99.84Z"/>
  <path class="cls-1" d="M38,20c-.05,0-.11,0-.17-.01l-12-2c-.54-.09-.91-.61-.82-1.15.09-.54.6-.91,1.15-.82l12,2c.54.09.91.61.82,1.15-.08.49-.5.84-.99.84Z"/>
  <path class="cls-1" d="M38,24c-.05,0-.11,0-.17-.01l-12-2c-.54-.09-.91-.61-.82-1.15.09-.54.6-.91,1.15-.82l12,2c.54.09.91.61.82,1.15-.08.49-.5.84-.99.84Z"/>
  <g>
    <path class="cls-1" d="M52,32H12c-.55,0-1-.45-1-1v-5c0-.55.45-1,1-1h29c.55,0,1,.45,1,1s-.45,1-1,1H13v3h38v-3h-1c-.55,0-1-.45-1-1s.45-1,1-1h2c.55,0,1,.45,1,1v5c0,.55-.45,1-1,1Z"/>
    <path class="cls-1" d="M46,27h-1c-.55,0-1-.45-1-1s.45-1,1-1h1c.55,0,1,.45,1,1s-.45,1-1,1Z"/>
    <path class="cls-1" d="M12,32c-.31,0-.62-.15-.81-.42-.32-.45-.22-1.07.23-1.4l7-5c.45-.32,1.07-.22,1.39.23.32.45.22,1.07-.23,1.4l-7,5c-.18.13-.38.19-.58.19Z"/>
    <path class="cls-1" d="M45,32c-.31,0-.62-.15-.81-.42-.32-.45-.22-1.07.23-1.4l7-5c.45-.32,1.07-.22,1.39.23.32.45.22,1.07-.23,1.4l-7,5c-.18.13-.38.19-.58.19Z"/>
    <path class="cls-1" d="M23,32c-.31,0-.62-.15-.81-.42-.32-.45-.22-1.07.23-1.4l7-5c.45-.32,1.07-.22,1.39.23.32.45.22,1.07-.23,1.4l-7,5c-.18.13-.38.19-.58.19Z"/>
    <path class="cls-1" d="M34,32c-.31,0-.62-.15-.81-.42-.32-.45-.22-1.07.23-1.4l7-5c.45-.32,1.07-.22,1.39.23.32.45.22,1.07-.23,1.4l-7,5c-.18.13-.38.19-.58.19Z"/>
  </g>
  <g>
    <path class="cls-1" d="M52,58H12c-.55,0-1-.45-1-1v-5c0-.55.45-1,1-1h40c.55,0,1,.45,1,1v5c0,.55-.45,1-1,1ZM13,56h38v-3H13v3Z"/>
    <path class="cls-1" d="M12,58c-.31,0-.62-.15-.81-.42-.32-.45-.22-1.07.23-1.4l7-5c.45-.32,1.07-.22,1.39.23s.22,1.07-.23,1.4l-7,5c-.18.13-.38.19-.58.19Z"/>
    <path class="cls-1" d="M45,58c-.31,0-.62-.15-.81-.42-.32-.45-.22-1.07.23-1.4l7-5c.45-.32,1.07-.22,1.39.23.32.45.22,1.07-.23,1.4l-7,5c-.18.13-.38.19-.58.19Z"/>
    <path class="cls-1" d="M23,58c-.31,0-.62-.15-.81-.42-.32-.45-.22-1.07.23-1.4l7-5c.45-.32,1.07-.22,1.39.23s.22,1.07-.23,1.4l-7,5c-.18.13-.38.19-.58.19Z"/>
    <path class="cls-1" d="M34,58c-.31,0-.62-.15-.81-.42-.32-.45-.22-1.07.23-1.4l7-5c.45-.32,1.07-.22,1.39.23s.22,1.07-.23,1.4l-7,5c-.18.13-.38.19-.58.19Z"/>
  </g>
  <path class="cls-1" d="M58,42h-4c-.55,0-1-.45-1-1s.45-1,1-1h4c.55,0,1,.45,1,1s-.45,1-1,1Z"/>
  <path class="cls-1" d="M54,38c-.32,0-.64-.16-.83-.45-.31-.46-.18-1.08.28-1.39l3-2c.46-.31,1.08-.18,1.39.28.31.46.18,1.08-.28,1.39l-3,2c-.17.11-.36.17-.55.17Z"/>
  <path class="cls-1" d="M57,48c-.19,0-.38-.05-.55-.17l-3-2c-.46-.31-.58-.93-.28-1.39.31-.46.92-.58,1.39-.28l3,2c.46.31.58.93.28,1.39-.19.29-.51.45-.83.45Z"/>
  <path class="cls-1" d="M10,42h-4c-.55,0-1-.45-1-1s.45-1,1-1h4c.55,0,1,.45,1,1s-.45,1-1,1Z"/>
  <path class="cls-1" d="M10,38c-.19,0-.38-.05-.55-.17l-3-2c-.46-.31-.58-.93-.28-1.39.31-.46.92-.58,1.39-.28l3,2c.46.31.58.93.28,1.39-.19.29-.51.45-.83.45Z"/>
  <path class="cls-1" d="M7,48c-.32,0-.64-.16-.83-.45-.31-.46-.18-1.08.28-1.39l3-2c.46-.31,1.08-.18,1.39.28s.18,1.08-.28,1.39l-3,2c-.17.11-.36.17-.55.17Z"/>
</svg>