<?xml version="1.0" encoding="UTF-8"?>
<svg id="Icons" xmlns="http://www.w3.org/2000/svg" viewBox="0 0 64 64">
  <defs>
    <style>
      .cls-1 {
        fill: #003290;
        stroke-width: 0px;
      }
    </style>
  </defs>
  <path class="cls-1" d="M17,19c-3.31,0-6-3.14-6-6.99,0-.46.03-.84.1-1.2.08-.42.42-.75.85-.81l9.53-1.31c.47-.06.92.21,1.08.66.3.85.45,1.74.45,2.66,0,3.85-2.69,6.99-6,6.99ZM13,11.87s0,.09,0,.14c0,2.75,1.79,4.99,4,4.99s4-2.24,4-4.99c0-.41-.04-.82-.12-1.22l-7.88,1.08Z"/>
  <path class="cls-1" d="M12.08,11.99c-.26,0-.52-.1-.71-.29-.22-.22-.33-.54-.28-.85.48-3.39,2.97-5.85,5.91-5.85,2.44,0,4.62,1.71,5.55,4.35.1.28.07.6-.09.85-.16.26-.42.43-.72.47l-9.53,1.31s-.09,0-.14,0ZM17,7c-1.52,0-2.91,1.14-3.58,2.8l6.69-.92c-.75-1.17-1.89-1.88-3.12-1.88Z"/>
  <path class="cls-1" d="M12,59c-.15,0-.31-.04-.45-.11l-4-2c-.48-.24-.68-.81-.47-1.3l3.91-8.81v-22.79c0-2.54,1.46-4,4-4,.55,0,1,.45,1,1s-.45,1-1,1c-1.44,0-2,.56-2,2v23c0,.14-.03.28-.09.41l-3.61,8.13,2.22,1.11,4.48-9.86v-8.78c0-.55.45-1,1-1h2c.36,0,.7.2.87.51l5,9c.08.15.13.32.13.49v10h2v-11.73l-3.87-6.77c-.09-.15-.13-.32-.13-.5v-4c0-.55.45-1,1-1h9.22l.5-2h-9.72c-.55,0-1-.45-1-1v-6c0-1.27-1.09-2-3-2-.55,0-1-.45-1-1s.45-1,1-1c3.69,0,5,2.15,5,4v5h10c.31,0,.6.14.79.38s.26.56.18.86l-1,4c-.11.44-.51.76-.97.76h-9v2.73l3.87,6.77c.09.15.13.32.13.5v13c0,.55-.45,1-1,1h-4c-.55,0-1-.45-1-1v-10.74l-4.59-8.26h-.41v8c0,.14-.03.28-.09.41l-5,11c-.11.25-.32.44-.58.53-.11.04-.22.06-.33.06Z"/>
  <path class="cls-1" d="M21.61,10.68c-.49,0-.91-.35-.99-.85-.08-.55.29-1.06.83-1.14l4.39-.68c.55-.08,1.06.29,1.14.83.08.55-.29,1.06-.83,1.14l-4.39.68c-.05,0-.1.01-.15.01Z"/>
  <path class="cls-1" d="M55,21c-.55,0-1-.45-1-1v-3c0-.55-.45-1-1-1h-7c-.55,0-1-.45-1-1s.45-1,1-1h7c1.65,0,3,1.35,3,3v3c0,.55-.45,1-1,1Z"/>
  <path class="cls-1" d="M29,27c-.55,0-1-.45-1-1v-9c0-1.65,1.35-3,3-3h7c.55,0,1,.45,1,1s-.45,1-1,1h-7c-.55,0-1,.45-1,1v9c0,.55-.45,1-1,1Z"/>
  <path class="cls-1" d="M55,26c-.55,0-1-.45-1-1v-1c0-.55.45-1,1-1s1,.45,1,1v1c0,.55-.45,1-1,1Z"/>
  <path class="cls-1" d="M53,42h-22c-1.65,0-3-1.35-3-3v-1c0-.55.45-1,1-1s1,.45,1,1v1c0,.55.45,1,1,1h22c.55,0,1-.45,1-1v-10c0-.55.45-1,1-1s1,.45,1,1v10c0,1.65-1.35,3-3,3Z"/>
  <path class="cls-1" d="M46,26c-.21,0-.42-.07-.6-.2l-3.4-2.55-3.4,2.55c-.3.23-.71.26-1.05.09s-.55-.52-.55-.89v-10c0-.55.45-1,1-1h8c.55,0,1,.45,1,1v10c0,.38-.21.73-.55.89-.14.07-.29.11-.45.11ZM42,21c.21,0,.42.07.6.2l2.4,1.8v-7h-6v7l2.4-1.8c.18-.13.39-.2.6-.2Z"/>
</svg>