<?xml version="1.0" encoding="UTF-8"?>
<svg id="Icons" xmlns="http://www.w3.org/2000/svg" viewBox="0 0 64 64">
  <defs>
    <style>
      .cls-1 {
        fill: #003290;
        stroke-width: 0px;
      }
    </style>
  </defs>
  <g>
    <path class="cls-1" d="M32,28c-4.41,0-8-4.04-8-9s3.59-9,8-9,8,4.04,8,9-3.59,9-8,9ZM32,12c-3.31,0-6,3.14-6,7s2.69,7,6,7,6-3.14,6-7-2.69-7-6-7Z"/>
    <path class="cls-1" d="M38,51.68c-.51,0-.94-.38-.99-.9-.06-.55.34-1.04.89-1.1.65-.07,1.3-.15,1.95-.24.54-.07,1.06.29,1.14.84.08.55-.29,1.06-.84,1.14-.69.1-1.36.18-2.05.26-.04,0-.07,0-.1,0Z"/>
    <path class="cls-1" d="M31.97,52c-5.05,0-10.16-.68-15.23-2.03-.44-.12-.74-.51-.74-.97v-5c0-6.53,4.6-12.96,10.69-14.95.52-.17,1.07.1,1.25.61l4.06,11.36,4.06-11.36c.18-.51.74-.78,1.25-.61,6.09,1.99,10.69,8.42,10.69,14.95v5c0,.45-.3.85-.74.97-1.02.27-2.05.52-3.05.73-.54.12-1.07-.23-1.18-.77-.11-.54.23-1.07.77-1.18.73-.15,1.47-.33,2.21-.51v-4.23c0-5.37-3.55-10.66-8.4-12.71l-4.66,13.04c-.14.4-.52.66-.94.66s-.8-.27-.94-.66l-4.66-13.04c-4.85,2.05-8.4,7.34-8.4,12.71v4.23c5.33,1.35,10.69,1.93,15.96,1.73.58-.04,1.02.41,1.04.96.02.55-.41,1.02-.96,1.04-.69.03-1.37.04-2.06.04Z"/>
  </g>
  <g>
    <path class="cls-1" d="M45,31c-.55,0-1-.45-1-1s.45-1,1-1c3.31,0,6-3.14,6-7s-2.69-7-6-7c-.79,0-1.57.18-2.32.54-.5.24-1.09.03-1.34-.47-.24-.5-.03-1.1.47-1.34,1.02-.49,2.09-.74,3.18-.74,4.41,0,8,4.04,8,9s-3.59,9-8,9Z"/>
    <path class="cls-1" d="M57,48c-.55,0-1-.45-1-1,0-5.85-5.92-14.25-11.32-16.05-.52-.17-.81-.74-.63-1.27.17-.52.74-.81,1.27-.63,6.16,2.05,12.68,11.28,12.68,17.95,0,.55-.45,1-1,1Z"/>
  </g>
  <g>
    <path class="cls-1" d="M19,31c-4.41,0-8-4.04-8-9s3.59-9,8-9c1.1,0,2.17.25,3.18.74.5.24.71.84.47,1.34-.24.5-.84.7-1.34.47-.74-.36-1.52-.54-2.32-.54-3.31,0-6,3.14-6,7s2.69,7,6,7c.55,0,1,.45,1,1s-.45,1-1,1Z"/>
    <path class="cls-1" d="M7,48c-.55,0-1-.45-1-1,0-6.67,6.52-15.89,12.68-17.95.53-.18,1.09.11,1.27.63.17.52-.11,1.09-.63,1.27-5.39,1.8-11.32,10.2-11.32,16.05,0,.55-.45,1-1,1Z"/>
  </g>
</svg>