<?xml version="1.0" encoding="UTF-8"?>
<svg id="Icons" xmlns="http://www.w3.org/2000/svg" viewBox="0 0 64 64">
  <defs>
    <style>
      .cls-1 {
        fill: #003290;
        stroke-width: 0px;
      }
    </style>
  </defs>
  <g>
    <path class="cls-1" d="M48,31h-4c-.55,0-1-.45-1-1v-2.46c-.56-.18-1.11-.41-1.63-.68l-1.73,1.74c-.19.19-.44.29-.71.29h0c-.27,0-.52-.11-.71-.29l-2.83-2.83c-.19-.19-.29-.44-.29-.71s.11-.52.29-.71l1.74-1.73c-.27-.52-.5-1.06-.68-1.63h-2.46c-.55,0-1-.45-1-1v-4c0-.55.45-1,1-1h2.46c.18-.56.41-1.11.68-1.63l-1.74-1.73c-.19-.19-.29-.44-.29-.71s.1-.52.29-.71l2.83-2.83c.19-.19.44-.29.71-.29h0c.27,0,.52.11.71.29l1.73,1.74c.52-.27,1.06-.5,1.63-.68v-2.46c0-.55.45-1,1-1h4c.55,0,1,.45,1,1v2.46c.56.18,1.11.41,1.63.68l1.73-1.74c.19-.19.44-.29.71-.29h0c.27,0,.52.11.71.29l2.83,2.83c.19.19.29.44.29.71s-.11.52-.29.71l-1.74,1.73c.27.52.5,1.06.68,1.63h2.46c.55,0,1,.45,1,1v4c0,.55-.45,1-1,1h-2.46c-.18.56-.41,1.11-.68,1.63l1.74,1.73c.19.19.29.44.29.71s-.1.52-.29.71l-2.83,2.83c-.19.19-.44.29-.71.29h0c-.27,0-.52-.11-.71-.29l-1.73-1.74c-.52.27-1.06.5-1.63.68v2.46c0,.55-.45,1-1,1ZM45,29h2v-2.22c0-.47.32-.87.78-.97.89-.2,1.72-.55,2.47-1.04.4-.25.92-.2,1.25.14l1.57,1.58,1.41-1.41-1.58-1.57c-.33-.33-.39-.85-.14-1.25.48-.75.83-1.58,1.04-2.47.1-.45.51-.78.97-.78h2.22v-2h-2.22c-.47,0-.87-.32-.97-.78-.2-.89-.55-1.72-1.04-2.47-.25-.4-.2-.92.14-1.25l1.58-1.57-1.41-1.41-1.57,1.58c-.33.33-.85.39-1.25.14-.75-.48-1.58-.83-2.47-1.04-.45-.1-.78-.51-.78-.97v-2.22h-2v2.22c0,.47-.32.87-.78.97-.89.2-1.72.55-2.47,1.04-.4.25-.92.2-1.25-.14l-1.57-1.58-1.41,1.41,1.58,1.57c.33.33.39.85.14,1.25-.48.75-.83,1.58-1.04,2.47-.1.45-.51.78-.97.78h-2.22v2h2.22c.47,0,.87.32.97.78.2.89.55,1.72,1.04,2.47.25.4.2.92-.14,1.25l-1.58,1.57,1.41,1.41,1.57-1.58c.33-.33.85-.39,1.25-.14.75.48,1.58.83,2.47,1.04.45.1.78.51.78.97v2.22Z"/>
    <path class="cls-1" d="M46,23c-2.76,0-5-2.24-5-5s2.24-5,5-5c.55,0,1,.45,1,1s-.45,1-1,1c-1.65,0-3,1.35-3,3s1.35,3,3,3,3-1.35,3-3c0-.55.45-1,1-1s1,.45,1,1c0,2.76-2.24,5-5,5Z"/>
  </g>
  <g>
    <path class="cls-1" d="M35,41h-12c-.55,0-1-.45-1-1s.45-1,1-1h10.38l-1-2h-9.38c-.55,0-1-.45-1-1s.45-1,1-1h10c.38,0,.73.21.89.55l2,4c.15.31.14.68-.04.97s-.5.47-.85.47Z"/>
    <path class="cls-1" d="M17,41H6c-.35,0-.67-.18-.85-.47s-.2-.66-.04-.97l2-4c.17-.34.52-.55.89-.55h9c.55,0,1,.45,1,1s-.45,1-1,1h-8.38l-1,2h9.38c.55,0,1,.45,1,1s-.45,1-1,1Z"/>
    <path class="cls-1" d="M23,43h-6c-.55,0-1-.45-1-1v-10c0-.55.45-1,1-1h6c.55,0,1,.45,1,1v10c0,.55-.45,1-1,1ZM18,41h4v-8h-4v8Z"/>
    <path class="cls-1" d="M32,59h-4c-.55,0-1-.45-1-1v-1h-14v1c0,.55-.45,1-1,1h-4c-.55,0-1-.45-1-1v-10c0-.55.45-1,1-1h12c.55,0,1,.45,1,1s-.45,1-1,1h-11v8h2v-1c0-.55.45-1,1-1h16c.55,0,1,.45,1,1v1h2v-8h-2c-.55,0-1-.45-1-1s.45-1,1-1h3c.55,0,1,.45,1,1v10c0,.55-.45,1-1,1Z"/>
    <path class="cls-1" d="M25,49h-1c-.55,0-1-.45-1-1s.45-1,1-1h1c.55,0,1,.45,1,1s-.45,1-1,1Z"/>
    <path class="cls-1" d="M20,45c-.55,0-1-.45-1-1v-2c0-.55.45-1,1-1s1,.45,1,1v2c0,.55-.45,1-1,1Z"/>
    <path class="cls-1" d="M21,53h-2c-.55,0-1-.45-1-1s.45-1,1-1h2c.55,0,1,.45,1,1s-.45,1-1,1Z"/>
    <path class="cls-1" d="M27,53h-2c-.55,0-1-.45-1-1s.45-1,1-1h2c.55,0,1,.45,1,1s-.45,1-1,1Z"/>
    <path class="cls-1" d="M15,53h-2c-.55,0-1-.45-1-1s.45-1,1-1h2c.55,0,1,.45,1,1s-.45,1-1,1Z"/>
    <path class="cls-1" d="M36,49h-4c-.55,0-1-.45-1-1v-6c0-.55.45-1,1-1h4c.55,0,1,.45,1,1v6c0,.55-.45,1-1,1ZM33,47h2v-4h-2v4Z"/>
    <path class="cls-1" d="M8,49h-4c-.55,0-1-.45-1-1v-6c0-.55.45-1,1-1h4c.55,0,1,.45,1,1v6c0,.55-.45,1-1,1ZM5,47h2v-4h-2v4Z"/>
    <path class="cls-1" d="M27,37c-.55,0-1-.45-1-1v-4.57c0-1.34-1.09-2.43-2.43-2.43h-.14c-1.34,0-2.43,1.09-2.43,2.43,0,.55-.45,1-1,1s-1-.45-1-1c0-2.44,1.99-4.43,4.43-4.43h.14c2.44,0,4.43,1.99,4.43,4.43v4.57c0,.55-.45,1-1,1Z"/>
  </g>
  <path class="cls-1" d="M11,28c-.55,0-1-.45-1-1v-8c0-3.86,3.14-7,7-7h5.67l-3.33-3.33c-.39-.39-.39-1.02,0-1.41s1.02-.39,1.41,0l4.93,4.93c.13.13.23.31.27.49l.02.11c.07.3,0,.61-.2.84-.19.24-.48.37-.78.37h-8c-2.76,0-5,2.24-5,5v8c0,.55-.45,1-1,1Z"/>
  <path class="cls-1" d="M43.96,57.04c-.26,0-.51-.1-.71-.29l-4.93-4.93c-.13-.13-.23-.31-.27-.49l-.02-.11c-.07-.3,0-.61.2-.84.19-.24.48-.37.78-.37h8c2.76,0,5-2.24,5-5v-8c0-.55.45-1,1-1s1,.45,1,1v8c0,3.86-3.14,7-7,7h-5.67l3.33,3.33c.39.39.39,1.02,0,1.41-.2.2-.45.29-.71.29Z"/>
  <path class="cls-1" d="M20,19c-.26,0-.51-.1-.71-.29-.39-.39-.39-1.02,0-1.41l5-5c.39-.39,1.02-.39,1.41,0s.39,1.02,0,1.41l-5,5c-.2.2-.45.29-.71.29Z"/>
  <path class="cls-1" d="M39,52c-.26,0-.51-.1-.71-.29-.39-.39-.39-1.02,0-1.41l5-5c.39-.39,1.02-.39,1.41,0s.39,1.02,0,1.41l-5,5c-.2.2-.45.29-.71.29Z"/>
</svg>