<?xml version="1.0" encoding="UTF-8"?>
<svg id="Icons" xmlns="http://www.w3.org/2000/svg" viewBox="0 0 64 64">
  <defs>
    <style>
      .cls-1 {
        fill: #003290;
        stroke-width: 0px;
      }
    </style>
  </defs>
  <path class="cls-1" d="M10,29c-.55,0-1-.45-1-1v-15c0-1.65,1.35-3,3-3,.55,0,1,.45,1,1s-.45,1-1,1-1,.45-1,1v15c0,.55-.45,1-1,1Z"/>
  <path class="cls-1" d="M51,45h-24c-.55,0-1-.45-1-1s.45-1,1-1h24c.55,0,1-.45,1-1v-17c0-.55.45-1,1-1s1,.45,1,1v17c0,1.65-1.35,3-3,3Z"/>
  <path class="cls-1" d="M47,12h-3c-.55,0-1-.45-1-1s.45-1,1-1h3c.55,0,1,.45,1,1s-.45,1-1,1Z"/>
  <path class="cls-1" d="M40,12h-1c-.55,0-1-.45-1-1s.45-1,1-1h1c.55,0,1,.45,1,1s-.45,1-1,1Z"/>
  <path class="cls-1" d="M35,12h-11c-.55,0-1-.45-1-1s.45-1,1-1h11c.55,0,1,.45,1,1s-.45,1-1,1Z"/>
  <path class="cls-1" d="M18,16c-1.65,0-3-1.35-3-3v-4c0-1.65,1.35-3,3-3s3,1.35,3,3v4c0,1.65-1.35,3-3,3ZM18,8c-.55,0-1,.45-1,1v4c0,.55.45,1,1,1s1-.45,1-1v-4c0-.55-.45-1-1-1Z"/>
  <path class="cls-1" d="M19,26h-5c-.55,0-1-.45-1-1v-5c0-.55.45-1,1-1h5c.55,0,1,.45,1,1v5c0,.55-.45,1-1,1ZM15,24h3v-3h-3v3Z"/>
  <path class="cls-1" d="M29,26h-5c-.55,0-1-.45-1-1v-5c0-.55.45-1,1-1h5c.55,0,1,.45,1,1v5c0,.55-.45,1-1,1ZM25,24h3v-3h-3v3Z"/>
  <path class="cls-1" d="M29,36h-4c-.55,0-1-.45-1-1s.45-1,1-1h3v-3h-4c-.55,0-1-.45-1-1s.45-1,1-1h5c.55,0,1,.45,1,1v5c0,.55-.45,1-1,1Z"/>
  <path class="cls-1" d="M39,26h-5c-.55,0-1-.45-1-1v-5c0-.55.45-1,1-1h5c.55,0,1,.45,1,1v5c0,.55-.45,1-1,1ZM35,24h3v-3h-3v3Z"/>
  <path class="cls-1" d="M39,36h-5c-.55,0-1-.45-1-1v-5c0-.55.45-1,1-1h5c.55,0,1,.45,1,1v5c0,.55-.45,1-1,1ZM35,34h3v-3h-3v3Z"/>
  <path class="cls-1" d="M49,36h-5c-.55,0-1-.45-1-1v-5c0-.55.45-1,1-1h5c.55,0,1,.45,1,1v5c0,.55-.45,1-1,1ZM45,34h3v-3h-3v3Z"/>
  <g>
    <path class="cls-1" d="M50.93,23.07c-.27,0-.52-.11-.71-.29l-5.66-5.66c-.39-.39-.39-1.02,0-1.41l1.41-1.41c.92-.92,2.3-1.12,3.41-.59l1.1-1.1-.51-1.54c-.12-.36-.03-.76.24-1.02l1.41-1.41c.39-.39,1.02-.39,1.41,0l5.66,5.66c.19.19.29.44.29.71s-.11.52-.29.71l-1.41,1.41c-.27.27-.66.36-1.02.24l-1.54-.51-1.1,1.1c.19.4.29.84.29,1.29,0,.8-.31,1.55-.88,2.12l-1.41,1.41c-.19.19-.44.29-.71.29ZM46.69,16.41l4.24,4.24.71-.71h0c.19-.19.29-.44.29-.71s-.1-.52-.29-.71c-.19-.19-.29-.44-.29-.71s.11-.52.29-.71l2.12-2.12c.27-.27.66-.36,1.02-.24l1.53.51.27-.27-4.24-4.24-.27.27.51,1.54c.12.36.03.76-.24,1.02l-2.12,2.12c-.39.39-1.02.39-1.41,0-.39-.39-1.02-.39-1.41,0l-.71.71Z"/>
    <path class="cls-1" d="M44.57,23.78c-.26,0-.51-.1-.71-.29-.39-.39-.39-1.02,0-1.41l3.54-3.54c.39-.39,1.02-.39,1.41,0,.39.39.39,1.02,0,1.41l-3.54,3.54c-.2.2-.45.29-.71.29Z"/>
  </g>
  <g>
    <path class="cls-1" d="M15.88,57.99c-4,0-7.33-.96-10.23-2.05-.39-.15-.65-.52-.65-.94v-3c0-2.94,1.33-6.87,7.69-8.95.51-.17,1.06.1,1.25.6l2.06,5.5,2.06-5.5c.19-.5.74-.77,1.25-.6,6.36,2.08,7.69,6.01,7.69,8.95v3c0,.42-.26.79-.65.94-3.95,1.49-7.41,2.05-10.47,2.05ZM7,54.3c4.73,1.71,10.23,2.77,18,0v-2.3c0-3.11-1.77-5.32-5.41-6.73l-2.65,7.08c-.15.39-.52.65-.94.65s-.79-.26-.94-.65l-2.65-7.08c-3.64,1.41-5.41,3.62-5.41,6.73v2.3ZM26,55h0,0Z"/>
    <path class="cls-1" d="M16,42c-3.31,0-6-3.14-6-7s2.69-7,6-7,6,3.14,6,7-2.69,7-6,7ZM16,30c-2.21,0-4,2.24-4,5s1.79,5,4,5,4-2.24,4-5-1.79-5-4-5Z"/>
  </g>
</svg>