<?xml version="1.0" encoding="UTF-8"?>
<svg id="Icons" xmlns="http://www.w3.org/2000/svg" viewBox="0 0 64 64">
  <defs>
    <style>
      .cls-1 {
        fill: #003290;
        stroke-width: 0px;
      }
    </style>
  </defs>
  <path class="cls-1" d="M16,45h-2c-1.65,0-3-1.35-3-3v-7c0-.55.45-1,1-1s1,.45,1,1v7c0,.55.45,1,1,1h2c.55,0,1,.45,1,1s-.45,1-1,1Z"/>
  <path class="cls-1" d="M40,33.14c-.55,0-1-.45-1-1v-15.14c0-.55-.45-1-1-1H14c-.55,0-1,.45-1,1v2c0,.55-.45,1-1,1s-1-.45-1-1v-2c0-1.65,1.35-3,3-3h24c1.65,0,3,1.35,3,3v15.14c0,.55-.45,1-1,1Z"/>
  <path class="cls-1" d="M40,38.17c-.55,0-1-.45-1-1v-1.02c0-.55.45-1,1-1s1,.45,1,1v1.02c0,.55-.45,1-1,1Z"/>
  <path class="cls-1" d="M40,45h-14c-.55,0-1-.45-1-1s.45-1,1-1h13v-1.83c0-.55.45-1,1-1s1,.45,1,1v2.83c0,.55-.45,1-1,1Z"/>
  <path class="cls-1" d="M21,50c-3.31,0-6-2.69-6-6s2.69-6,6-6,6,2.69,6,6-2.69,6-6,6ZM21,40c-2.21,0-4,1.79-4,4s1.79,4,4,4,4-1.79,4-4-1.79-4-4-4Z"/>
  <path class="cls-1" d="M49,50c-3.31,0-6-2.69-6-6s2.69-6,6-6,6,2.69,6,6-2.69,6-6,6ZM49,40c-2.21,0-4,1.79-4,4s1.79,4,4,4,4-1.79,4-4-1.79-4-4-4Z"/>
  <path class="cls-1" d="M44,45h-4c-.55,0-1-.45-1-1s.45-1,1-1h4c.55,0,1,.45,1,1s-.45,1-1,1Z"/>
  <path class="cls-1" d="M56,45h-2c-.55,0-1-.45-1-1s.45-1,1-1h2c.55,0,1-.45,1-1v-7.79c0-.59-.17-1.17-.5-1.66l-6.14-9.21c-.56-.84-1.49-1.34-2.5-1.34h-7.86c-.55,0-1-.45-1-1s.45-1,1-1h7.86c1.67,0,3.23.83,4.16,2.23l6.14,9.21c.55.82.84,1.78.84,2.77v7.79c0,1.65-1.35,3-3,3Z"/>
  <path class="cls-1" d="M22,24h-14c-.55,0-1-.45-1-1s.45-1,1-1h14c.55,0,1,.45,1,1s-.45,1-1,1Z"/>
  <path class="cls-1" d="M21,28h-10c-.55,0-1-.45-1-1s.45-1,1-1h10c.55,0,1,.45,1,1s-.45,1-1,1Z"/>
  <path class="cls-1" d="M18,32H6c-.55,0-1-.45-1-1s.45-1,1-1h12c.55,0,1,.45,1,1s-.45,1-1,1Z"/>
</svg>