<?xml version="1.0" encoding="UTF-8"?>
<svg xmlns="http://www.w3.org/2000/svg" viewBox="0 0 64 64">
  <defs>
    <style>
      .cls-1 {
        fill: #fbb03b;
      }

      .cls-1, .cls-2, .cls-3, .cls-4 {
        stroke-width: 0px;
      }

      .cls-2 {
        fill: #c1272d;
      }

      .cls-3 {
        fill: #003290;
      }

      .cls-4 {
        fill: #009245;
      }
    </style>
  </defs>
  <g id="Filled_Color" data-name="Filled Color">
    <circle class="cls-1" cx="39" cy="25" r="3"/>
    <circle class="cls-2" cx="55" cy="17" r="3"/>
    <circle class="cls-4" cx="55" cy="33" r="3"/>
  </g>
  <g id="Icons">
    <g>
      <g>
        <path class="cls-3" d="M13,26c-.26,0-.51-.1-.71-.29-.39-.39-.39-1.02,0-1.41l1-1c.39-.39,1.02-.39,1.41,0s.39,1.02,0,1.41l-1,1c-.2.2-.45.29-.71.29Z"/>
        <path class="cls-3" d="M17.05,45.71c-1.16,0-2.29-.42-3.14-1.27l-7.64-7.64c-.82-.82-1.27-1.93-1.27-3.13,0-1.34.57-2.67,1.55-3.65l2.74-2.73c.39-.39,1.02-.39,1.42,0,.39.39.39,1.02,0,1.41l-2.74,2.73c-.61.61-.97,1.43-.97,2.24,0,.67.24,1.28.68,1.72l7.64,7.64c1.02,1.01,2.79.89,3.96-.28l12.03-12.02-11.32-11.31-2.29,2.29c-.39.39-1.02.39-1.41,0-.39-.39-.39-1.02,0-1.41l2.99-3c.19-.19.44-.29.71-.29h0c.26,0,.52.11.71.29l12.73,12.73c.19.19.29.44.29.71s-.11.52-.29.71l-12.73,12.73c-1.03,1.03-2.36,1.55-3.66,1.55Z"/>
      </g>
      <path class="cls-3" d="M21,32c-1.65,0-3-1.35-3-3s1.35-3,3-3,3,1.35,3,3-1.35,3-3,3ZM21,28c-.55,0-1,.45-1,1s.45,1,1,1,1-.45,1-1-.45-1-1-1Z"/>
      <path class="cls-3" d="M21,28c-.55,0-1-.45-1-1v-13c0-1.07.42-2.07,1.17-2.83.76-.76,1.76-1.17,2.83-1.17,2.21,0,4,1.79,4,4v11c0,.55-.45,1-1,1s-1-.45-1-1v-11c0-1.1-.9-2-2-2-.53,0-1.03.21-1.41.59s-.59.88-.59,1.41v13c0,.55-.45,1-1,1Z"/>
      <path class="cls-3" d="M34,54c-3.31,0-6-2.69-6-6,0-2.96,4.62-10.65,5.15-11.52.36-.6,1.35-.6,1.71,0,.53.87,5.15,8.56,5.15,11.52,0,3.31-2.69,6-6,6ZM34,38.97c-1.81,3.15-4,7.48-4,9.03,0,2.21,1.79,4,4,4s4-1.79,4-4c0-1.55-2.19-5.88-4-9.03Z"/>
      <path class="cls-3" d="M39,29c-2.21,0-4-1.79-4-4s1.79-4,4-4,4,1.79,4,4-1.79,4-4,4ZM39,23c-1.1,0-2,.9-2,2s.9,2,2,2,2-.9,2-2-.9-2-2-2Z"/>
      <path class="cls-3" d="M55,21c-2.21,0-4-1.79-4-4s1.79-4,4-4,4,1.79,4,4-1.79,4-4,4ZM55,15c-1.1,0-2,.9-2,2s.9,2,2,2,2-.9,2-2-.9-2-2-2Z"/>
      <path class="cls-3" d="M58,26h-12c-.55,0-1-.45-1-1s.45-1,1-1h12c.55,0,1,.45,1,1s-.45,1-1,1Z"/>
      <path class="cls-3" d="M48,18h-12c-.55,0-1-.45-1-1s.45-1,1-1h12c.55,0,1,.45,1,1s-.45,1-1,1Z"/>
      <path class="cls-3" d="M55,37c-2.21,0-4-1.79-4-4s1.79-4,4-4,4,1.79,4,4-1.79,4-4,4ZM55,31c-1.1,0-2,.9-2,2s.9,2,2,2,2-.9,2-2-.9-2-2-2Z"/>
      <path class="cls-3" d="M48,34h-12c-.55,0-1-.45-1-1s.45-1,1-1h12c.55,0,1,.45,1,1s-.45,1-1,1Z"/>
    </g>
  </g>
</svg>