<?xml version="1.0" encoding="UTF-8"?>
<svg xmlns="http://www.w3.org/2000/svg" viewBox="0 0 64 64">
  <defs>
    <style>
      .cls-1 {
        fill: #003290;
      }

      .cls-1, .cls-2 {
        stroke-width: 0px;
      }

      .cls-2 {
        fill: #a8a8a8;
      }
    </style>
  </defs>
  <g id="Filled_Color" data-name="Filled Color">
    <g>
      <path class="cls-2" d="M47.86,34.6c-.14.51-.3,1.01-.47,1.48h0s0,.01-.01.01c0,.01-.01.02-.01.03-1.29,3.43-3.58,5.67-5.44,5.17-2.14-.57-2.94-4.49-1.8-8.76.32-1.2.76-2.3,1.28-3.25,1.32-2.43,3.12-3.86,4.66-3.44,1.16.31,1.93,1.62,2.2,3.44.23,1.51.11,3.38-.41,5.32Z"/>
      <path class="cls-2" d="M18.12,18.35l27.95,7.49c-1.54-.42-3.34,1.01-4.66,3.44-.52.95-.96,2.05-1.28,3.25-1.14,4.27-.34,8.19,1.8,8.76l-30.91-8.28s-.05-.01-.08-.03c-2.08-.64-2.85-4.51-1.72-8.73,1.15-4.27,3.8-7.27,5.94-6.7h0s2.96.8,2.96.8Z"/>
      <path class="cls-2" d="M48.27,29.28c-.27-1.82-1.04-3.13-2.2-3.44l-27.95-7.49c.11-4.79-1.42-9.62-4.45-13.35l31.42,8.38h.01c4.75,5.88,6.03,14.38,2.86,21.25l-.1-.03c.52-1.94.64-3.81.41-5.32Z"/>
    </g>
  </g>
  <g id="Icons">
    <g>
      <path class="cls-1" d="M42.46,42.36c-.27,0-.53-.03-.79-.1-1.42-.38-2.43-1.71-2.85-3.76-.37-1.8-.25-4.01.34-6.23.34-1.26.8-2.42,1.37-3.47,1.61-2.96,3.83-4.46,5.8-3.92,1.52.41,2.58,1.96,2.93,4.26.26,1.69.1,3.72-.43,5.72,0,0,0,0,0,0-.14.53-.31,1.04-.48,1.52-.02.05-.04.1-.06.14-1.36,3.57-3.66,5.83-5.82,5.83ZM45.53,26.77c-.97,0-2.25,1.17-3.24,2.99-.5.91-.9,1.93-1.19,3.03-.51,1.92-.62,3.8-.32,5.31.26,1.25.77,2.06,1.41,2.23,1.11.29,3.03-1.35,4.24-4.53.02-.05.04-.1.06-.15.15-.42.29-.86.41-1.31.47-1.74.6-3.48.39-4.91-.21-1.43-.78-2.44-1.47-2.62-.09-.02-.19-.04-.29-.04ZM47.86,34.6h0,0Z"/>
      <path class="cls-1" d="M41.93,42.29c-.09,0-.17-.01-.26-.03l-30.91-8.28s-.09-.03-.14-.05c-2.65-.83-3.67-5.1-2.37-9.94,1.33-4.95,4.4-8.13,7.16-7.41.04.01.09.03.13.04l30.78,8.25c.53.14.85.69.71,1.22s-.69.85-1.22.71l-30.91-8.28s-.06-.02-.09-.03c-1.38-.23-3.6,2.23-4.62,6.01-1.05,3.92-.29,7.1,1.05,7.51.03,0,.05.02.08.03l30.88,8.27c.53.14.85.69.71,1.22-.12.45-.52.74-.97.74Z"/>
      <path class="cls-1" d="M47.96,35.63c-.14,0-.28-.03-.42-.09-.5-.23-.72-.83-.49-1.33,2.95-6.4,1.86-14.51-2.72-20.2-.32-.39-.31-.96.04-1.33.38-.4,1.01-.42,1.41-.04.03.03.07.07.1.11,5.05,6.27,6.25,15.23,2.99,22.31-.17.37-.53.58-.91.58Z"/>
      <path class="cls-1" d="M18.12,19.36s0,0-.01,0c-.55,0-.99-.45-.99-.99.11-4.73-1.39-9.24-4.23-12.73-.27-.34-.3-.81-.06-1.17.24-.36.68-.54,1.1-.42l31.42,8.38c.53.14.85.69.71,1.22-.14.53-.69.85-1.22.71l-28.77-7.67c2.08,3.44,3.15,7.5,3.05,11.7-.01.54-.46.98-1,.98Z"/>
      <path class="cls-1" d="M44.58,38.96c-.42,0-.84-.09-1.23-.27-1.29-.6-2.49-2.47-1.61-5.73.58-2.18,1.91-3.61,3.23-3.45.65.07,1.74.57,1.83,3.05.02.55-.41,1.01-.97,1.03-.58.04-1.01-.41-1.03-.96-.02-.52-.08-.83-.14-1.01-.28.25-.72.88-.98,1.86-.52,1.92-.09,3.11.53,3.4.54.25,1.47-.06,2.35-1.32.05-.07.1-.14.16-.19.4-.38,1.03-.37,1.41.04.33.35.36.88.1,1.26,0,0-.01.02-.02.03h0c-1.02,1.46-2.34,2.27-3.61,2.27Z"/>
      <path class="cls-1" d="M43,50c-.07,0-.14,0-.22-.02L6.78,41.98c-.39-.09-.69-.4-.77-.79-.07-.39.09-.79.43-1.02l6-4c.46-.31,1.08-.18,1.39.28.31.46.18,1.08-.28,1.39l-4.05,2.7,33.09,7.35,12.74-16.38-1.66-.55c-.52-.17-.81-.74-.63-1.26.17-.52.74-.81,1.27-.63l3,1c.31.1.55.35.64.66.09.31.03.65-.17.9l-14,18c-.19.25-.48.39-.79.39Z"/>
      <path class="cls-2" d="M43,55c-.07,0-.14,0-.22-.02L6.78,46.98c-.54-.12-.88-.65-.76-1.19.12-.54.65-.88,1.19-.76l35.38,7.86,13.61-17.5c.34-.44.97-.52,1.4-.17.44.34.51.97.18,1.4l-14,18c-.19.25-.48.39-.79.39Z"/>
      <path class="cls-1" d="M43,60c-.07,0-.14,0-.22-.02L6.78,51.98c-.54-.12-.88-.65-.76-1.19.12-.54.65-.88,1.19-.76l35.38,7.86,13.61-17.5c.34-.44.97-.52,1.4-.17.44.34.51.97.18,1.4l-14,18c-.19.25-.48.39-.79.39Z"/>
    </g>
  </g>
</svg>