<?xml version="1.0" encoding="UTF-8"?>
<svg id="Icons" xmlns="http://www.w3.org/2000/svg" viewBox="0 0 64 64">
  <defs>
    <style>
      .cls-1 {
        fill: #003290;
      }

      .cls-1, .cls-2 {
        stroke-width: 0px;
      }

      .cls-2 {
        fill: #a8a8a8;
      }
    </style>
  </defs>
  <path class="cls-1" d="M32,59c-.19,0-.37-.05-.53-.15l-19-12c-.29-.18-.47-.5-.47-.85v-6.58c0-.55.45-1,1-1s1,.45,1,1v6.03l17,10.74v-17.66l-9.56-6.48-8.94-5.18c-.48-.28-.64-.89-.36-1.37.28-.48.89-.64,1.37-.36l9,5.22,10.06,6.82c.27.19.44.5.44.83v20c0,.36-.2.7-.52.88-.15.08-.32.12-.48.12Z"/>
  <path class="cls-1" d="M51,27c-.14,0-.29-.03-.43-.1l-4.45-2.12c-.5-.24-.71-.83-.47-1.33.24-.5.84-.71,1.33-.47l4.45,2.12c.5.24.71.83.47,1.33-.17.36-.53.57-.9.57Z"/>
  <path class="cls-1" d="M13,27c-.37,0-.73-.21-.9-.57-.24-.5-.02-1.1.47-1.33l4.34-2.06c.5-.23,1.09-.02,1.33.47.24.5.02,1.1-.47,1.33l-4.34,2.06c-.14.07-.28.1-.43.1Z"/>
  <path class="cls-1" d="M32,59c-.17,0-.33-.04-.48-.12-.32-.18-.52-.51-.52-.88v-20c0-.33.16-.64.44-.83l10-6.78,9.06-5.26c.48-.28,1.09-.11,1.37.36.28.48.11,1.09-.36,1.37l-9,5.22-9.5,6.45v17.66l17-10.74v-6.03c0-.55.45-1,1-1s1,.45,1,1v6.58c0,.34-.18.66-.47.85l-19,12c-.16.1-.35.15-.53.15Z"/>
  <g>
    <path class="cls-1" d="M39,48c-.33,0-.66-.17-.85-.47-.1-.17-.15-.35-.15-.53,0-.33.17-.66.47-.85l19-12c.47-.29,1.08-.16,1.38.31.1.17.15.35.15.53,0,.33-.17.66-.47.85l-19,12c-.17.1-.35.15-.53.15Z"/>
    <path class="cls-1" d="M39,48c-.3,0-.59-.13-.79-.39l-7-9c-.34-.44-.26-1.06.18-1.4.43-.34,1.06-.26,1.4.17l7,9c.34.44.26,1.06-.18,1.4-.18.14-.4.21-.61.21Z"/>
    <path class="cls-1" d="M58,36c-.3,0-.59-.13-.79-.39l-7-9c-.34-.44-.26-1.06.18-1.4.43-.34,1.06-.26,1.4.17l7,9c.34.44.26,1.06-.18,1.4-.18.14-.4.21-.61.21Z"/>
  </g>
  <g>
    <path class="cls-1" d="M25,48c-.18,0-.37-.05-.53-.15l-19-12c-.3-.19-.47-.51-.47-.85,0-.18.05-.37.15-.53.3-.47.91-.61,1.38-.31l19,12c.3.19.47.51.47.85,0,.18-.05.37-.15.53-.19.3-.52.47-.85.47Z"/>
    <path class="cls-1" d="M25,48c-.21,0-.43-.07-.61-.21-.44-.34-.51-.97-.18-1.4l7-9c.34-.44.97-.52,1.4-.17.44.34.51.97.18,1.4l-7,9c-.2.25-.49.39-.79.39Z"/>
    <path class="cls-1" d="M6,36c-.21,0-.43-.07-.61-.21-.44-.34-.51-.97-.18-1.4l7-9c.34-.44.97-.52,1.4-.17.44.34.51.97.18,1.4l-7,9c-.2.25-.49.39-.79.39Z"/>
  </g>
  <path class="cls-1" d="M42,32.22c-.55,0-1-.45-1-1V11.03c0-.57-.45-1.03-1-1.03h-16c-.55,0-1,.46-1,1.03v20.19c0,.55-.45,1-1,1s-1-.45-1-1V11.03c0-1.67,1.35-3.03,3-3.03h16c1.65,0,3,1.36,3,3.03v20.19c0,.55-.45,1-1,1Z"/>
  <path class="cls-1" d="M27.28,10c-.11,0-.21-.02-.32-.05-.52-.18-.8-.74-.63-1.27l.53-1.57c.28-.82.87-1.49,1.63-1.84.72-.33,1.52-.35,2.25-.06l7.22,2.87c.51.2.76.79.56,1.3-.2.51-.78.76-1.3.56l-7.22-2.87c-.27-.11-.52-.05-.67.02-.26.12-.47.37-.58.67l-.53,1.57c-.14.42-.53.68-.95.68Z"/>
  <path class="cls-1" d="M44.38,30.84c-.11,0-.23-.02-.34-.06-.52-.19-.79-.76-.6-1.28l4.86-13.35c.19-.52-.08-1.1-.6-1.29l-6.05-2.2c-.52-.19-.79-.76-.6-1.28.19-.52.77-.79,1.28-.6l6.05,2.2c1.55.57,2.35,2.3,1.79,3.85l-4.86,13.35c-.15.41-.53.66-.94.66Z"/>
  <path class="cls-1" d="M19.21,30.09c-.41,0-.79-.25-.94-.66l-3.45-9.49c-.28-.75-.24-1.56.1-2.29.34-.72.94-1.28,1.68-1.55l5.05-1.84c.52-.19,1.09.08,1.28.6.19.52-.08,1.09-.6,1.28l-5.05,1.84c-.25.09-.45.28-.56.52-.11.24-.12.51-.03.75l3.45,9.5c.19.52-.08,1.09-.6,1.28-.11.04-.23.06-.34.06Z"/>
  <path class="cls-2" d="M26,20.74c-.12,0-.24-.02-.36-.07-.51-.2-.77-.78-.57-1.3.83-2.12,3.23-3.49,5.14-2.94.89.26,1.68.73,2.45,1.19.52.31,1.02.61,1.51.82.82.35,2.33-.12,2.97-1.21.28-.48.89-.64,1.37-.36.48.28.64.89.36,1.37-1.09,1.86-3.65,2.82-5.48,2.04-.62-.26-1.2-.61-1.76-.94-.69-.41-1.34-.8-1.98-.99-.83-.25-2.23.48-2.72,1.74-.15.39-.53.64-.93.64Z"/>
  <path class="cls-2" d="M26,27.16c-.12,0-.24-.02-.36-.07-.51-.2-.77-.78-.57-1.3.84-2.16,3.19-3.5,5.14-2.94.89.26,1.68.73,2.45,1.19.52.31,1.02.61,1.51.82.82.35,2.33-.12,2.97-1.21.28-.48.89-.64,1.37-.36.48.28.64.89.36,1.37-1.09,1.86-3.65,2.82-5.48,2.04-.62-.26-1.2-.61-1.76-.95-.69-.41-1.34-.8-1.98-.99-.83-.24-2.23.49-2.72,1.75-.15.39-.53.64-.93.64Z"/>
</svg>