<?xml version="1.0" encoding="utf-8"?>
<!-- Generator: Adobe Illustrator 25.0.1, SVG Export Plug-In . SVG Version: 6.00 Build 0)  -->
<svg version="1.1" id="Layer_1" xmlns="http://www.w3.org/2000/svg" xmlns:xlink="http://www.w3.org/1999/xlink" x="0px" y="0px"
	 viewBox="0 0 64 64" style="enable-background:new 0 0 64 64;" xml:space="preserve">
<style type="text/css">
	.st0{fill:#003290;}
	.st1{fill:#009245;}
	.st2{fill:#C1272D;}
	.st3{fill:#FBB03B;}
	.st4{fill:#FFFFFF;}
</style>
<g id="Filled_Color">
</g>
<g id="Icons">
	<g>
		<g>
		</g>
	</g>
</g>
<g>
	<path class="st0" d="M53.8,44.9c1.6-0.2,2-0.7,2-2.4c0-1.2,0.1-2.5,0-3.7c-0.1-1.3,0.2-2.3,1.3-3.1c0.8-0.7,0.9-1.5,0.3-2.4
		c-0.5-0.7-0.7-1.4-0.2-2.3c0.3-0.5,0.5-0.8,1.1-0.9c1.7-0.4,2-0.8,2-2.5c0-0.2,0-0.4,0-0.7c-0.1-0.9-0.5-1.5-1.3-1.6
		c-1.1-0.1-1.8-0.7-2-1.8c0-0.3-0.1-0.6,0-0.8c1.4-2.2,0.7-2.7-0.5-3.9c-0.1-0.1-0.1-0.1-0.2-0.2c-0.1-0.3-0.3-0.5-0.4-0.8
		c0-1.2,0-2.4,0-3.5c0-1.7-0.6-2.2-2.2-2.2c-5.8,0-11.6,0-17.4,0c-0.4,0-0.7-0.1-0.9-0.4c-5.2-8.1-16.7-8.1-22,0
		c-0.3,0.4-0.5,0.5-0.9,0.5c-1.4,0-2.9,0-4.3,0c-1.1,0-1.8,0.7-1.8,1.8c0,0.7,0,1.4,0,2.2c0,0.5,0.2,0.9,0.8,0.9
		c0.5,0,0.8-0.4,0.8-0.9c0-0.6,0-1.3,0-1.9c0-0.2,0.2-0.5,0.3-0.5c1.3,0,2.7,0,4.1,0c-1.1,3-1.2,6-0.3,8.9c1,3,2.8,5.3,5.5,6.9
		c4.8,2.8,9.7,2.8,14.2-0.4c5.4-3.8,6.7-9.2,4.8-15.4c0,0,0.1,0,0.2,0c5.7,0,11.5,0,17.2,0c0.4,0,0.5,0.2,0.5,0.5c0,1.3,0,2.6,0,3.9
		c0,0.1,0,0.3-0.1,0.4c-0.4,0.5-1.4,0.8-2,0.5c-0.1-0.1-0.3-0.1-0.4-0.2c-0.6-0.1-0.8-0.5-0.9-1c0-0.3-0.1-0.6-0.2-0.8
		c-0.3-0.4-0.5-0.9-0.9-1c-1.8-0.5-3.5-0.5-3.9,1.8c-0.2,1.1-1.7,1.7-2.7,1.1c-1.5-0.9-2-0.9-3.2,0.4c-0.1,0.1-0.3,0.3-0.4,0.4
		c-0.5,0.6-0.6,1.4-0.2,2.1c0.2,0.3,0.4,0.7,0.6,1c0.1,0.2,0.2,0.4,0.1,0.5c-0.3,1-0.7,1.9-2,2c-1,0.1-1.5,0.8-1.5,1.8
		c0,0.3,0,0.6,0,0.9c0,1.1,0.5,1.7,1.5,1.9c0.9,0.2,1.5,0.5,1.8,1.5c0.1,0.5,0.2,0.9-0.1,1.3c-1,1.6-0.9,2,0.4,3.3
		c0.1,0.1,0.2,0.2,0.3,0.3c0.7,0.7,1.4,0.8,2.3,0.3c0.3-0.2,0.6-0.4,1-0.6C43.7,36,43.9,36,44,36c1,0.4,1.9,0.7,2,2
		c0.1,0.9,0.8,1.4,1.7,1.4c2.3,0.1,2.5-0.1,3.2-2.3c0.1-0.3,0.4-0.5,0.6-0.6c0.3-0.2,0.7-0.3,1-0.5c0.5-0.2,1.7,0.6,1.7,1.1
		c0,1.9,0,3.8,0,5.6c0,0.2-0.1,0.4-0.2,0.4c-0.6,0-1.3,0.1-1.7-0.2c-1.2-0.8-2.4-1.3-3.7-1.5c-3.5-0.6-7-0.3-10.4-0.1
		c-0.5,0-0.8,0.3-0.8,0.8c0,0.5,0.4,0.8,0.9,0.7c1.2-0.1,2.5-0.2,3.7-0.2c2.4-0.1,4.8-0.1,7.2,0.5c1.7,0.4,2.9,1.4,3.5,3.1
		c0.4,1.4,0.3,2.7-0.2,4c-0.8,2-3.6,3.9-6.2,2.4c-2.4-1.4-5.2-2.1-8-2.2c-2.2-0.1-4.4-0.1-6.6-0.1c-1.4,0-2.8-0.1-4-0.9
		c-4-2.5-8.3-4.1-12.9-5.1c-1-0.2-2-0.5-3-0.7c0.3-0.3,0.6-0.4,0.9-0.5c1-0.2,2-0.4,3-0.4c2.4,0.1,4.7,0.4,7.1,0.6
		c1,0.1,2,0.1,3.1,0.2c-0.2,0.3-0.4,0.6-0.5,0.9c-0.5,1.1,0.1,1.9,1.3,2c2.5,0.1,5.1,0.1,7.6,0.2c2.4,0.2,4.8,0.3,6.9,1.9
		c0.2,0.1,0.7,0,0.9-0.2c0.2-0.2,0.2-0.7,0-0.9c-0.2-0.3-0.5-0.6-0.9-0.8c-1-0.4-2-0.9-3.1-1.1c-2.9-0.7-6-0.7-9-0.7
		c-0.7,0-1.4,0-2.2,0c0.7-0.9,1.5-1.2,2.4-1.3c2-0.2,4-0.4,6-0.5c0.7-0.1,1.1-0.3,1-0.8c0-0.5-0.4-0.8-1.2-0.7
		c-1.5,0.1-2.9,0.2-4.4,0.3c-3.3,0.2-6.6,0.2-9.9-0.2c-2-0.2-4-0.4-5.9-0.4c-1.5,0-3.2,0.2-4.4,1.2c-0.6,0.5-1.2,0.6-1.9,0.6
		c-0.8,0-0.8,0-0.8-0.9c0-7.6,0-15.1,0-22.7c0-0.3,0-0.5,0-0.8c0-0.5-0.3-0.7-0.7-0.7c-0.5,0-0.7,0.3-0.8,0.7c0,0.2,0,0.4,0,0.6
		c0,7.7,0,15.4,0,23.1c0,1.7,0.5,2.2,2.2,2.2c0.6,0,1.1,0,1.7,0.1c0.8,0.2,1.5,0.5,2.3,0.7c5.1,1.1,10,2.7,14.5,5.5
		c0.5,0.3,1.2,0.6,1.8,0.7c2,0.2,4,0.3,6,0.3c2.5,0,5,0.1,7.4,0.8c2.6,0.8,5.1,1.8,6.6,4.3c0.2,0.3,0.4,0.6,0.7,0.9
		c0.2,0.2,0.5,0.4,0.7,0.4c3.7,0.6,6.6-1.6,7.3-4.6c0.3-1.3,0.2-2.5-0.8-3.7C55.3,48.5,54,47,53.8,44.9z M44,7.9c-0.3,0-0.6,0-0.8,0
		c-1.5,0-3,0-4.5,0c-0.6,0-1,0.3-1,0.8c0,0.6,0.4,0.7,1,0.7c1.6,0,3.2,0,4.8,0c0.2,0,0.3,0,0.5,0c-0.4,0.5-0.6,0.9-0.1,1.3
		c0.5,0.4,0.9,0.1,1.3-0.2c0.5-0.4,1.1-0.9,1.6-1.3c0.4-0.4,0.5-0.9,0.1-1.2c-0.7-0.6-1.3-1.1-2-1.6c-0.2-0.1-0.7-0.1-0.9,0.1
		c-0.2,0.2-0.1,0.6-0.1,0.9C43.7,7.6,43.8,7.8,44,7.9z M9.7,49.9c0-0.5,0-1-0.2-1.3c-0.1-0.2-0.7-0.2-1-0.1c-0.7,0.5-1.4,1-2,1.6
		c-0.4,0.3-0.4,0.8,0,1.1c0.6,0.6,1.3,1.1,2,1.6C8.8,53,9.3,53,9.5,52.8c0.2-0.2,0.1-0.6,0.1-0.9c0-0.1-0.1-0.2-0.2-0.4
		c0.5,0,0.9,0,1.3,0c1.4,0,2.7,0,4.1,0c0.5,0,0.8-0.2,0.8-0.7c0-0.5-0.3-0.7-0.8-0.8c-0.2,0-0.3,0-0.5,0
		C12.7,49.9,11.1,49.9,9.7,49.9z M25.6,34.2c0,1.7,0,3.4,0,5c0,0.6,0.2,0.7,0.7,0.7c0.5,0,0.7-0.1,0.7-0.7c0-0.8,0-1.5,0-2.3
		c0-0.9,0-1.8,0-2.7c0.5,0,0.9,0,1.4,0c0.4,0,0.5-0.1,0.5-0.5c0-0.3,0-0.6-0.4-0.6c-1.4,0-2.8,0-4.2,0c-0.4,0-0.4,0.3-0.4,0.6
		c0,0.3,0,0.6,0.4,0.5C24.6,34.2,25.1,34.2,25.6,34.2z M21.5,36.4c0,1,0,2,0,2.9c0,0.6,0.3,0.5,0.7,0.5c0.4,0,0.7,0,0.7-0.5
		c0-1.9,0-3.8,0-5.7c0-0.5-0.3-0.5-0.7-0.5c-0.4,0-0.7,0-0.7,0.5C21.5,34.5,21.5,35.4,21.5,36.4z"/>
	<path class="st0" d="M53.8,44.9c0.2,2.1,1.5,3.6,2.7,5.1c1,1.1,1.1,2.4,0.8,3.7c-0.7,3.1-3.5,5.2-7.3,4.6c-0.3,0-0.5-0.2-0.7-0.4
		c-0.3-0.3-0.5-0.5-0.7-0.9c-1.5-2.5-4-3.5-6.6-4.3c-2.4-0.7-4.9-0.8-7.4-0.8c-2,0-4-0.1-6-0.3c-0.6,0-1.2-0.3-1.8-0.7
		c-4.5-2.8-9.4-4.4-14.5-5.5c-0.8-0.2-1.5-0.5-2.3-0.7c-0.5-0.1-1.1-0.1-1.7-0.1c-1.7,0-2.2-0.5-2.2-2.2c0-7.7,0-15.4,0-23.1
		c0-0.2,0-0.4,0-0.6c0-0.5,0.3-0.7,0.8-0.7c0.5,0,0.7,0.3,0.7,0.7c0,0.3,0,0.5,0,0.8c0,7.6,0,15.1,0,22.7c0,0.9,0,0.8,0.8,0.9
		c0.7,0,1.3-0.1,1.9-0.6c1.2-1,2.8-1.2,4.4-1.2c2,0,4,0.2,5.9,0.4c3.3,0.4,6.6,0.3,9.9,0.2c1.5-0.1,2.9-0.2,4.4-0.3
		c0.8-0.1,1.1,0.2,1.2,0.7c0,0.5-0.3,0.8-1,0.8c-2,0.2-4,0.3-6,0.5c-0.9,0.1-1.7,0.3-2.4,1.3c0.8,0,1.5,0,2.2,0c3,0,6,0,9,0.7
		c1,0.2,2.1,0.7,3.1,1.1c0.3,0.1,0.7,0.4,0.9,0.8c0.1,0.2,0.1,0.7,0,0.9c-0.2,0.2-0.7,0.3-0.9,0.2c-2-1.6-4.5-1.8-6.9-1.9
		c-2.5-0.2-5.1-0.2-7.6-0.2c-1.2,0-1.7-0.8-1.3-2c0.1-0.3,0.3-0.5,0.5-0.9c-1.1-0.1-2.1-0.1-3.1-0.2c-2.4-0.2-4.7-0.5-7.1-0.6
		c-1,0-2,0.2-3,0.4c-0.3,0-0.6,0.2-0.9,0.5c1,0.2,2,0.5,3,0.7c4.6,1,8.9,2.7,12.9,5.1c1.2,0.8,2.6,0.8,4,0.9c2.2,0,4.4,0,6.6,0.1
		c2.8,0.1,5.6,0.8,8,2.2c2.7,1.6,5.4-0.4,6.2-2.4c0.5-1.3,0.6-2.7,0.2-4c-0.5-1.7-1.7-2.7-3.5-3.1c-2.4-0.6-4.8-0.6-7.2-0.5
		c-1.2,0.1-2.5,0.1-3.7,0.2c-0.5,0-0.9-0.2-0.9-0.7c0-0.5,0.3-0.8,0.8-0.8c3.5-0.2,7-0.6,10.4,0.1c1.3,0.2,2.6,0.7,3.7,1.5
		c0.4,0.3,1.2,0.1,1.7,0.2c0,0,0.2-0.3,0.2-0.4c0-1.9,0-3.8,0-5.6c0-0.5-1.2-1.3-1.7-1.1c-0.3,0.1-0.7,0.3-1,0.5
		c-0.2,0.2-0.5,0.4-0.6,0.6c-0.6,2.2-0.9,2.4-3.2,2.3c-0.9,0-1.6-0.5-1.7-1.4c-0.1-1.3-1-1.7-2-2c-0.1,0-0.3,0-0.5,0.1
		c-0.3,0.2-0.6,0.4-1,0.6c-0.8,0.5-1.6,0.4-2.3-0.3c-0.1-0.1-0.2-0.2-0.3-0.3c-1.3-1.3-1.4-1.8-0.4-3.3c0.3-0.5,0.2-0.8,0.1-1.3
		c-0.3-0.9-0.8-1.3-1.8-1.5c-1.1-0.2-1.5-0.8-1.5-1.9c0-0.3,0-0.6,0-0.9c0-1,0.4-1.7,1.5-1.8c1.3-0.1,1.6-1,2-2
		c0.1-0.1,0-0.4-0.1-0.5c-0.2-0.3-0.4-0.7-0.6-1c-0.4-0.7-0.3-1.5,0.2-2.1c0.1-0.1,0.3-0.3,0.4-0.4c1.3-1.3,1.7-1.3,3.2-0.4
		c1,0.6,2.5,0,2.7-1.1c0.3-2.3,2.1-2.3,3.9-1.8c0.4,0.1,0.7,0.6,0.9,1c0.1,0.2,0.2,0.5,0.2,0.8c0.1,0.5,0.3,0.9,0.9,1
		c0.1,0,0.3,0.1,0.4,0.2c0.6,0.3,1.6,0,2-0.5c0.1-0.1,0.1-0.3,0.1-0.4c0-1.3,0-2.6,0-3.9c0-0.4-0.1-0.5-0.5-0.5
		c-5.7,0-11.5,0-17.2,0c-0.1,0-0.1,0-0.2,0c1.9,6.2,0.6,11.6-4.8,15.4c-4.5,3.2-9.4,3.2-14.2,0.4c-2.7-1.6-4.5-4-5.5-6.9
		c-1-3-0.8-5.9,0.3-8.9c-1.4,0-2.8,0-4.1,0c-0.1,0-0.3,0.3-0.3,0.5c0,0.6,0,1.3,0,1.9c0,0.5-0.2,0.9-0.8,0.9c-0.6,0-0.8-0.4-0.8-0.9
		c0-0.7,0-1.4,0-2.2c0-1.1,0.7-1.8,1.8-1.8c1.4,0,2.9,0,4.3,0c0.4,0,0.7-0.1,0.9-0.5c5.2-8.1,16.7-8.1,22,0c0.2,0.4,0.5,0.4,0.9,0.4
		c5.8,0,11.6,0,17.4,0c1.7,0,2.2,0.6,2.2,2.2c0,1.2,0,2.4,0,3.5c0,0.3,0.2,0.5,0.4,0.8c0,0.1,0.1,0.1,0.2,0.2c1.3,1.2,2,1.7,0.5,3.9
		c-0.1,0.2-0.1,0.6,0,0.8c0.2,1.1,0.9,1.6,2,1.8c0.9,0.1,1.3,0.7,1.3,1.6c0,0.2,0,0.4,0,0.7c0,1.7-0.3,2.1-2,2.5
		c-0.6,0.1-0.8,0.4-1.1,0.9c-0.5,0.9-0.3,1.5,0.2,2.3c0.6,0.9,0.5,1.7-0.3,2.4c-1,0.8-1.4,1.8-1.3,3.1c0.1,1.2,0,2.5,0,3.7
		C55.8,44.2,55.4,44.6,53.8,44.9z M58.6,27.8c0-0.9,0-0.9-0.8-1.1c-0.2,0-0.3-0.1-0.5-0.1c-1.2-0.3-2.6-2.7-2.1-3.9
		c0.2-0.4,0.4-0.8,0.7-1.2c0.5-0.6-0.1-0.8-0.3-1.1c-0.3-0.3-0.5-0.6-1-0.2c-1,0.9-2.1,1-3.3,0.3c-0.2-0.1-0.5-0.1-0.7-0.3
		c-0.4-0.3-0.7-0.7-1-1.1c-0.2-0.2-0.2-0.6-0.2-0.9c-0.1-0.5-0.2-0.8-0.8-0.7c-0.5,0-1-0.1-1.1,0.7c-0.1,1.2-0.7,2.1-2,2.3
		c-0.1,0-0.2,0.1-0.3,0.1c-0.9,0.6-1.7,0.5-2.6-0.1c-1-0.6-1-0.6-1.8,0.3c-0.1,0.1-0.1,0.4-0.1,0.5c1.2,1.3,0.9,2.7,0.2,4
		c0,0,0,0,0,0.1c-0.2,0.7-0.7,1.1-1.3,1.2c-0.4,0.1-0.7,0.2-1.1,0.3c-0.1,0-0.3,0.2-0.4,0.3c-0.3,0.8,0,1.4,0.9,1.6
		c0.1,0,0.2,0.1,0.3,0.1c0.9,0.1,1.4,0.6,1.6,1.5c0.1,0.2,0.1,0.4,0.2,0.6c0.6,1,0.5,1.9-0.2,2.8c-0.4,0.5-0.4,0.9,0.1,1.3
		c0.4,0.4,0.7,0.5,1.2,0.1c0.2-0.2,0.5-0.3,0.7-0.4c1.2-0.6,3.8,0.5,4.2,1.8c0.1,0.4,0.2,0.7,0.3,1.1c0,0.1,0.1,0.4,0.2,0.4
		c0.4,0,0.9,0.1,1.3,0c0.2,0,0.3-0.4,0.3-0.7c0.2-1.2,0.7-2,2-2.2c0.3-0.1,0.5-0.2,0.8-0.3c0.6-0.3,1.1-0.3,1.7,0.1
		c0.3,0.2,0.5,0.3,0.8,0.5c0.4,0.3,0.7,0.3,1-0.1c0.3-0.4,0.8-0.6,0.3-1.2c-0.4-0.5-0.6-1.2-0.7-1.8c-0.1-0.4,0.4-0.9,0.5-1.3
		c0.3-1.3,1.1-1.9,2.3-2C58.5,28.5,58.8,28.3,58.6,27.8z M25,23.1c1.5,0.3,3,0.5,4.5,0.8c0.1,0,0.4,0,0.4-0.1
		c0.8-1.4,1.4-2.8,1.5-4.4c-2.1,0-4.2,0-6.3,0C25,20.6,25,21.9,25,23.1z M31.3,17.7c-0.2-1.6-0.7-3-1.4-4.3
		c-0.1-0.1-0.3-0.2-0.4-0.2c-1.5,0.3-2.9,0.5-4.5,0.8c0,1.1,0,2.4,0,3.6C27.1,17.7,29.2,17.7,31.3,17.7z M48.9,54.9
		c0.3,0.3,0.6,0.6,0.7,0.9c0.6,1.1,1.6,1.2,2.7,0.9c0.1,0,0.2,0,0.3,0c1.7-0.5,2.8-1.7,3.2-3.4c0.5-1.7-0.8-2.5-1.5-3.7
		C53.5,52.5,51.8,54.2,48.9,54.9z M17.6,19.3c0.1,1.6,0.6,2.9,1.3,4.3c0.1,0.1,0.3,0.2,0.4,0.2c1.4-0.2,2.7-0.4,4.1-0.6
		c0-1.3,0-2.5,0-3.8C21.5,19.3,19.5,19.3,17.6,19.3z M18.8,13.4c-0.7,1.3-1.2,2.7-1.3,4.3c2,0,3.9,0,5.8,0c0-1.3,0-2.5,0-3.7
		C21.9,13.8,20.4,13.6,18.8,13.4z M15,25.3c0.8-0.4,1.6-0.7,2.4-1c-0.3-0.8-0.7-1.6-0.9-2.4c-0.2-0.8-0.4-1.7-0.6-2.6
		c-0.9,0-1.8,0-2.7,0c-0.1,0-0.2,0-0.3,0C12.8,21,13.7,23.7,15,25.3z M15.8,17.7c0.5-1.7,1-3.3,1.4-5c-0.7-0.3-1.4-0.7-2.2-1
		c-1.3,1.8-2.1,3.8-2.2,6C13.9,17.7,14.9,17.7,15.8,17.7z M35.6,19.3c-1,0-1.8,0-2.5,0c-0.6,1.8-1.1,3.5-1.6,5.2
		c0.5,0.2,1.2,0.6,1.9,0.9C34.7,23.6,35.4,21.6,35.6,19.3z M31.4,12.6c0.6,1.7,1.1,3.4,1.6,5.1c0.8,0,1.6,0,2.6,0
		c-0.2-2.3-0.9-4.2-2.3-6C32.6,12,32,12.3,31.4,12.6z M25.2,7.9C25.1,8,25.1,8,25,8.1c0,1.4,0,2.8,0,4.4c1.3-0.2,2.5-0.4,3.7-0.6
		c0-0.1,0.1-0.2,0.1-0.2C27.6,10.4,26.4,9.2,25.2,7.9z M19.7,12c1.3,0.2,2.5,0.3,3.7,0.5c0-1.6,0-3,0-4.5C22,9.1,20.8,10.4,19.7,12z
		 M25,24.7c0,1.5,0,2.9,0,4.3c0.1,0,0.1,0,0.2,0.1c1.2-1.2,2.4-2.4,3.6-3.6c0-0.1-0.1-0.2-0.1-0.2C27.5,25.1,26.3,24.9,25,24.7z
		 M23.4,24.7c-1.2,0.1-2.3,0.3-3.5,0.4c1.1,1.5,2.2,2.7,3.5,3.9C23.4,27.5,23.4,26.2,23.4,24.7z M21.5,29.6c-1-1.3-2.1-2.5-3.1-3.8
		c-0.1-0.1-0.3-0.2-0.4-0.1c-0.7,0.2-1.3,0.5-2,0.8C17.7,28.1,19.5,29.1,21.5,29.6z M21.3,7.5c-2,0.5-3.7,1.5-5.2,3
		c0.6,0.3,1.2,0.6,1.7,0.8c0.1,0,0.4,0,0.5-0.1C19.3,10,20.3,8.7,21.3,7.5z M32.2,10.4C30.8,9,29.1,8,27,7.5
		c0.8,0.9,1.7,1.7,2.4,2.6c1.1,1.3,1.1,1.3,2.7,0.4C32.1,10.5,32.2,10.5,32.2,10.4z M27.1,29.6c2-0.5,3.7-1.5,5.2-2.9
		c-0.7-0.3-1.3-0.6-1.8-0.8C29.4,27.1,28.3,28.3,27.1,29.6z"/>
	<path class="st1" d="M44,7.9c-0.1-0.2-0.3-0.3-0.3-0.4c0-0.3,0-0.8,0.1-0.9c0.2-0.2,0.7-0.2,0.9-0.1c0.7,0.5,1.4,1,2,1.6
		c0.4,0.3,0.3,0.8-0.1,1.2c-0.5,0.5-1.1,0.9-1.6,1.3c-0.4,0.3-0.8,0.6-1.3,0.2c-0.4-0.4-0.3-0.9,0.1-1.3c-0.2,0-0.4,0-0.5,0
		c-1.6,0-3.2,0-4.8,0c-0.5,0-0.9-0.2-1-0.7c0-0.5,0.3-0.8,1-0.8c1.5,0,3,0,4.5,0C43.4,7.9,43.6,7.9,44,7.9z"/>
	<path class="st2" d="M9.7,49.9c1.5,0,3.1,0,4.7,0c0.2,0,0.3,0,0.5,0c0.5,0,0.8,0.3,0.8,0.8c0,0.5-0.3,0.7-0.8,0.7
		c-1.4,0-2.7,0-4.1,0c-0.4,0-0.8,0-1.3,0c0.1,0.2,0.2,0.3,0.2,0.4c0,0.3,0,0.8-0.1,0.9C9.3,53,8.8,53,8.6,52.9c-0.7-0.5-1.4-1-2-1.6
		c-0.4-0.3-0.4-0.8,0-1.1c0.6-0.6,1.3-1.1,2-1.6c0.2-0.1,0.9-0.1,1,0.1C9.7,49,9.6,49.4,9.7,49.9z"/>
	<path class="st0" d="M25.6,34.2c-0.5,0-1,0-1.4,0c-0.4,0-0.4-0.2-0.4-0.5c0-0.3,0-0.6,0.4-0.6c1.4,0,2.8,0,4.2,0
		c0.5,0,0.4,0.3,0.4,0.6c0,0.4-0.1,0.5-0.5,0.5c-0.4,0-0.9,0-1.4,0c0,0.9,0,1.8,0,2.7c0,0.8,0,1.5,0,2.3c0,0.6-0.2,0.7-0.7,0.7
		c-0.5,0-0.7-0.1-0.7-0.7C25.6,37.6,25.6,35.9,25.6,34.2z"/>
	<path class="st0" d="M21.5,36.4c0-0.9,0-1.9,0-2.8c0-0.5,0.3-0.5,0.7-0.5c0.3,0,0.7,0,0.7,0.5c0,1.9,0,3.8,0,5.7
		c0,0.5-0.3,0.5-0.7,0.5c-0.4,0-0.7,0-0.7-0.5C21.5,38.3,21.5,37.4,21.5,36.4z"/>
	<path class="st3" d="M58.6,27.8c0.1,0.5-0.2,0.8-0.7,0.8c-1.2,0.1-2,0.7-2.3,2c-0.1,0.5-0.5,0.9-0.5,1.3c0.1,0.6,0.3,1.3,0.7,1.8
		c0.4,0.6,0,0.9-0.3,1.2c-0.3,0.4-0.6,0.4-1,0.1c-0.2-0.2-0.5-0.3-0.8-0.5c-0.6-0.3-1.1-0.3-1.7-0.1c-0.3,0.1-0.5,0.3-0.8,0.3
		c-1.2,0.3-1.8,1.1-2,2.2c0,0.3-0.2,0.7-0.3,0.7c-0.4,0.1-0.9,0-1.3,0c-0.1,0-0.2-0.2-0.2-0.4c-0.1-0.4-0.2-0.7-0.3-1.1
		c-0.4-1.3-3-2.4-4.2-1.8c-0.2,0.1-0.5,0.3-0.7,0.4c-0.5,0.4-0.8,0.3-1.2-0.1c-0.5-0.5-0.5-0.8-0.1-1.3c0.7-0.9,0.8-1.8,0.2-2.8
		c-0.1-0.2-0.2-0.4-0.2-0.6c-0.2-0.9-0.8-1.3-1.6-1.5c-0.1,0-0.2-0.1-0.3-0.1c-0.9-0.2-1.2-0.8-0.9-1.6c0-0.1,0.2-0.2,0.4-0.3
		c0.4-0.1,0.7-0.2,1.1-0.3c0.7-0.2,1.1-0.6,1.3-1.2c0,0,0,0,0-0.1c0.8-1.4,1-2.7-0.2-4c-0.1-0.1,0-0.4,0.1-0.5
		c0.7-0.9,0.8-1,1.8-0.3c0.9,0.6,1.7,0.7,2.6,0.1c0.1-0.1,0.2-0.1,0.3-0.1c1.3-0.2,1.9-1.1,2-2.3c0.1-0.8,0.6-0.7,1.1-0.7
		c0.6,0,0.7,0.3,0.8,0.7c0,0.3,0.1,0.6,0.2,0.9c0.3,0.4,0.6,0.8,1,1.1c0.2,0.2,0.5,0.1,0.7,0.3c1.2,0.8,2.3,0.6,3.3-0.3
		c0.4-0.4,0.7-0.1,1,0.2c0.3,0.3,0.8,0.5,0.3,1.1c-0.3,0.4-0.5,0.8-0.7,1.2c-0.4,1.2,0.9,3.6,2.1,3.9c0.2,0,0.3,0.1,0.5,0.1
		C58.6,26.9,58.6,26.9,58.6,27.8z M52.9,27.8c0-2.5-2-4.5-4.5-4.5c-2.5,0-4.5,2-4.5,4.5c0,2.5,2,4.5,4.5,4.5
		C51,32.2,52.9,30.3,52.9,27.8z"/>
	<path class="st4" d="M25,23.1c0-1.2,0-2.5,0-3.8c2.1,0,4.2,0,6.3,0c-0.1,1.6-0.6,3.1-1.5,4.4c-0.1,0.1-0.3,0.1-0.4,0.1
		C28,23.6,26.5,23.4,25,23.1z"/>
	<path class="st4" d="M31.3,17.7c-2.2,0-4.2,0-6.3,0c0-1.3,0-2.5,0-3.6c1.5-0.3,3-0.6,4.5-0.8c0.1,0,0.4,0.1,0.4,0.2
		C30.6,14.7,31.2,16.1,31.3,17.7z"/>
	<path class="st4" d="M48.9,54.9c2.9-0.7,4.6-2.4,5.4-5.3c0.8,1.2,2,2,1.5,3.7c-0.5,1.7-1.5,2.9-3.2,3.4c-0.1,0-0.2,0-0.3,0
		c-1.1,0.3-2.1,0.2-2.7-0.9C49.4,55.5,49.2,55.3,48.9,54.9z"/>
	<path class="st4" d="M17.6,19.3c2,0,3.9,0,5.8,0c0,1.3,0,2.6,0,3.8c-1.4,0.2-2.7,0.4-4.1,0.6c-0.1,0-0.4-0.1-0.4-0.2
		C18.2,22.2,17.7,20.9,17.6,19.3z"/>
	<path class="st4" d="M18.8,13.4c1.6,0.2,3,0.4,4.6,0.7c0,1.2,0,2.4,0,3.7c-1.9,0-3.8,0-5.8,0C17.6,16.1,18.1,14.7,18.8,13.4z"/>
	<path class="st4" d="M15,25.3c-1.3-1.6-2.3-4.3-2.2-6c0.1,0,0.2,0,0.3,0c0.9,0,1.8,0,2.7,0c0.2,0.9,0.3,1.7,0.6,2.6
		c0.2,0.8,0.6,1.6,0.9,2.4C16.6,24.6,15.9,24.9,15,25.3z"/>
	<path class="st4" d="M15.8,17.7c-0.9,0-1.9,0-3,0c0.1-2.2,0.9-4.2,2.2-6c0.8,0.4,1.5,0.7,2.2,1C16.7,14.4,16.3,16,15.8,17.7z"/>
	<path class="st4" d="M35.6,19.3c-0.2,2.3-0.9,4.3-2.3,6.1c-0.7-0.3-1.3-0.6-1.9-0.9c0.6-1.7,1.1-3.4,1.6-5.2
		C33.8,19.3,34.7,19.3,35.6,19.3z"/>
	<path class="st4" d="M31.4,12.6c0.6-0.3,1.2-0.6,1.9-0.9c1.3,1.8,2.1,3.7,2.3,6c-0.9,0-1.8,0-2.6,0C32.5,16,32,14.3,31.4,12.6z"/>
	<path class="st4" d="M25.2,7.9c1.2,1.2,2.4,2.5,3.7,3.7c0,0.1-0.1,0.2-0.1,0.2c-1.2,0.2-2.5,0.4-3.7,0.6c0-1.6,0-3,0-4.4
		C25.1,8,25.1,8,25.2,7.9z"/>
	<path class="st4" d="M19.7,12c1.1-1.6,2.3-2.8,3.7-4c0,1.5,0,2.9,0,4.5C22.2,12.3,21,12.1,19.7,12z"/>
	<path class="st4" d="M25,24.7c1.3,0.2,2.5,0.4,3.7,0.5c0,0.1,0.1,0.2,0.1,0.2c-1.2,1.2-2.4,2.4-3.6,3.6c-0.1,0-0.1,0-0.2-0.1
		C25,27.7,25,26.3,25,24.7z"/>
	<path class="st4" d="M23.4,24.7c0,1.5,0,2.8,0,4.3c-1.3-1.2-2.5-2.4-3.5-3.9C21.1,25,22.2,24.9,23.4,24.7z"/>
	<path class="st4" d="M21.5,29.6c-2.1-0.5-3.9-1.5-5.5-3.1c0.7-0.3,1.4-0.6,2-0.8c0.1,0,0.3,0,0.4,0.1
		C19.5,27.1,20.5,28.4,21.5,29.6z"/>
	<path class="st4" d="M21.3,7.5c-1,1.2-2,2.5-3,3.7c-0.1,0.1-0.4,0.2-0.5,0.1c-0.6-0.2-1.1-0.5-1.7-0.8C17.6,9,19.4,8,21.3,7.5z"/>
	<path class="st4" d="M32.2,10.4c-0.1,0.1-0.1,0.1-0.1,0.1c-1.6,0.9-1.5,0.9-2.7-0.4c-0.7-0.9-1.6-1.7-2.4-2.6
		C29.1,8,30.8,9,32.2,10.4z"/>
	<path class="st4" d="M27.1,29.6c1.2-1.3,2.3-2.5,3.4-3.7c0.5,0.2,1.1,0.5,1.8,0.8C30.8,28.1,29.1,29,27.1,29.6z"/>
	<path d="M52.9,27.8c0,2.5-2,4.5-4.5,4.5c-2.5,0-4.5-2-4.5-4.5c0-2.5,2-4.6,4.5-4.5C51,23.3,53,25.3,52.9,27.8z M48.5,30.7
		c1.6,0,2.9-1.3,2.9-3c0-1.6-1.4-3-3-3c-1.6,0-3,1.3-3,2.9C45.5,29.4,46.8,30.7,48.5,30.7z"/>
	<path class="st4" d="M48.5,30.7c-1.7,0-3-1.3-3-3c0-1.6,1.4-2.9,3-2.9c1.6,0,2.9,1.3,3,3C51.4,29.4,50.1,30.7,48.5,30.7z"/>
</g>
</svg>
